<svg width="162" height="235" viewBox="0 0 162 235" fill="none" xmlns="http://www.w3.org/2000/svg">
<path d="M55.2676 190.926H1.60938V228.48H55.2676V190.926Z" fill="#263238"/>
<path d="M55.8482 222.424H16.0197C15.2149 222.424 14.5625 223.078 14.5625 223.884V233.54C14.5625 234.347 15.2149 235.001 16.0197 235.001H55.8482C56.653 235.001 57.3054 234.347 57.3054 233.54V223.884C57.3054 223.078 56.653 222.424 55.8482 222.424Z" fill="#F22D61"/>
<path opacity="0.2" d="M55.8482 222.424H16.0197C15.2149 222.424 14.5625 223.078 14.5625 223.884V233.54C14.5625 234.347 15.2149 235.001 16.0197 235.001H55.8482C56.653 235.001 57.3054 234.347 57.3054 233.54V223.884C57.3054 223.078 56.653 222.424 55.8482 222.424Z" fill="black"/>
<path d="M41.2857 222.424H1.45714C0.65238 222.424 0 223.078 0 223.884V233.54C0 234.347 0.65238 235.001 1.45714 235.001H41.2857C42.0905 235.001 42.7429 234.347 42.7429 233.54V223.884C42.7429 223.078 42.0905 222.424 41.2857 222.424Z" fill="#F22D61"/>
<path opacity="0.3" d="M38.5331 228.718C38.5331 229.243 38.3777 229.756 38.0866 230.193C37.7955 230.63 37.3817 230.97 36.8976 231.171C36.4135 231.372 35.8808 231.424 35.3669 231.322C34.8529 231.219 34.3809 230.967 34.0104 230.595C33.6398 230.224 33.3875 229.751 33.2853 229.236C33.1831 228.721 33.2355 228.187 33.436 227.702C33.6366 227.216 33.9761 226.802 34.4118 226.51C34.8475 226.218 35.3597 226.062 35.8837 226.062C36.5864 226.062 37.2603 226.342 37.7571 226.84C38.254 227.338 38.5331 228.014 38.5331 228.718Z" fill="#F5F5F5"/>
<path d="M35.897 230.062C36.6384 230.062 37.2394 229.459 37.2394 228.716C37.2394 227.973 36.6384 227.371 35.897 227.371C35.1557 227.371 34.5547 227.973 34.5547 228.716C34.5547 229.459 35.1557 230.062 35.897 230.062Z" fill="#F22D61"/>
<path opacity="0.3" d="M30.2448 227.211H27.2422V230.22H30.2448V227.211Z" fill="#F5F5F5"/>
<path d="M55.8482 209.299H16.0197C15.2149 209.299 14.5625 209.953 14.5625 210.759V220.415C14.5625 221.222 15.2149 221.876 16.0197 221.876H55.8482C56.653 221.876 57.3054 221.222 57.3054 220.415V210.759C57.3054 209.953 56.653 209.299 55.8482 209.299Z" fill="#F22D61"/>
<path opacity="0.2" d="M55.8482 209.299H16.0197C15.2149 209.299 14.5625 209.953 14.5625 210.759V220.415C14.5625 221.222 15.2149 221.876 16.0197 221.876H55.8482C56.653 221.876 57.3054 221.222 57.3054 220.415V210.759C57.3054 209.953 56.653 209.299 55.8482 209.299Z" fill="black"/>
<path d="M41.2857 209.299H1.45714C0.65238 209.299 0 209.953 0 210.759V220.415C0 221.222 0.65238 221.876 1.45714 221.876H41.2857C42.0905 221.876 42.7429 221.222 42.7429 220.415V210.759C42.7429 209.953 42.0905 209.299 41.2857 209.299Z" fill="#F22D61"/>
<path opacity="0.3" d="M38.5331 215.583C38.5331 216.108 38.3777 216.621 38.0866 217.058C37.7955 217.495 37.3817 217.835 36.8976 218.036C36.4135 218.237 35.8808 218.29 35.3669 218.187C34.8529 218.085 34.3809 217.832 34.0104 217.46C33.6398 217.089 33.3875 216.616 33.2853 216.101C33.1831 215.586 33.2355 215.052 33.436 214.567C33.6366 214.082 33.9761 213.667 34.4118 213.375C34.8475 213.083 35.3597 212.928 35.8837 212.928C36.5864 212.928 37.2603 213.207 37.7571 213.705C38.254 214.203 38.5331 214.879 38.5331 215.583Z" fill="#F5F5F5"/>
<path d="M37.2315 215.582C37.2295 215.85 37.1478 216.111 36.9968 216.332C36.8457 216.553 36.6323 216.724 36.3838 216.823C36.1353 216.921 35.863 216.943 35.6019 216.886C35.3407 216.829 35.1026 216.694 34.9181 216.501C34.7335 216.307 34.6109 216.062 34.566 215.798C34.521 215.534 34.5558 215.262 34.6658 215.018C34.7758 214.774 34.9561 214.568 35.1835 214.428C35.4109 214.287 35.675 214.217 35.9422 214.228C36.2904 214.241 36.6197 214.39 36.8603 214.643C37.101 214.896 37.2341 215.232 37.2315 215.582Z" fill="#F22D61"/>
<path opacity="0.3" d="M30.2448 214.076H27.2422V217.085H30.2448V214.076Z" fill="#F5F5F5"/>
<path d="M55.8482 196.164H16.0197C15.2149 196.164 14.5625 196.818 14.5625 197.624V207.281C14.5625 208.087 15.2149 208.741 16.0197 208.741H55.8482C56.653 208.741 57.3054 208.087 57.3054 207.281V197.624C57.3054 196.818 56.653 196.164 55.8482 196.164Z" fill="#F22D61"/>
<path opacity="0.2" d="M55.8482 196.164H16.0197C15.2149 196.164 14.5625 196.818 14.5625 197.624V207.281C14.5625 208.087 15.2149 208.741 16.0197 208.741H55.8482C56.653 208.741 57.3054 208.087 57.3054 207.281V197.624C57.3054 196.818 56.653 196.164 55.8482 196.164Z" fill="black"/>
<path d="M41.2857 196.164H1.45714C0.65238 196.164 0 196.818 0 197.624V207.281C0 208.087 0.65238 208.741 1.45714 208.741H41.2857C42.0905 208.741 42.7429 208.087 42.7429 207.281V197.624C42.7429 196.818 42.0905 196.164 41.2857 196.164Z" fill="#F22D61"/>
<path opacity="0.3" d="M38.5331 202.45C38.5331 202.975 38.3777 203.489 38.0866 203.925C37.7955 204.362 37.3817 204.702 36.8976 204.903C36.4135 205.104 35.8808 205.157 35.3669 205.054C34.8529 204.952 34.3809 204.699 34.0104 204.328C33.6398 203.956 33.3875 203.483 33.2853 202.968C33.1831 202.453 33.2355 201.919 33.436 201.434C33.6366 200.949 33.9761 200.534 34.4118 200.242C34.8475 199.951 35.3597 199.795 35.8837 199.795C36.5864 199.795 37.2603 200.075 37.7571 200.573C38.254 201.071 38.5331 201.746 38.5331 202.45Z" fill="#F5F5F5"/>
<path d="M37.2315 202.447C37.2315 202.713 37.1526 202.974 37.0047 203.195C36.8568 203.417 36.6466 203.589 36.4008 203.691C36.155 203.792 35.8847 203.818 35.6241 203.766C35.3634 203.713 35.1243 203.584 34.9369 203.395C34.7495 203.206 34.6224 202.965 34.5716 202.704C34.5208 202.442 34.5487 202.172 34.6516 201.926C34.7546 201.68 34.928 201.471 35.1499 201.324C35.3718 201.177 35.6322 201.1 35.8981 201.102C36.2525 201.104 36.5917 201.247 36.8415 201.499C37.0913 201.751 37.2315 202.092 37.2315 202.447Z" fill="#F22D61"/>
<path opacity="0.3" d="M30.2448 200.943H27.2422V203.953H30.2448V200.943Z" fill="#F5F5F5"/>
<path d="M55.8482 183.029H16.0197C15.2149 183.029 14.5625 183.683 14.5625 184.49V194.146C14.5625 194.952 15.2149 195.606 16.0197 195.606H55.8482C56.653 195.606 57.3054 194.952 57.3054 194.146V184.49C57.3054 183.683 56.653 183.029 55.8482 183.029Z" fill="#F22D61"/>
<path opacity="0.2" d="M55.8482 183.029H16.0197C15.2149 183.029 14.5625 183.683 14.5625 184.49V194.146C14.5625 194.952 15.2149 195.606 16.0197 195.606H55.8482C56.653 195.606 57.3054 194.952 57.3054 194.146V184.49C57.3054 183.683 56.653 183.029 55.8482 183.029Z" fill="black"/>
<path d="M41.2857 183.029H1.45714C0.65238 183.029 0 183.683 0 184.49V194.146C0 194.952 0.65238 195.606 1.45714 195.606H41.2857C42.0905 195.606 42.7429 194.952 42.7429 194.146V184.49C42.7429 183.683 42.0905 183.029 41.2857 183.029Z" fill="#F22D61"/>
<path opacity="0.3" d="M38.5331 189.311C38.5331 189.837 38.3777 190.35 38.0866 190.787C37.7955 191.223 37.3817 191.564 36.8976 191.765C36.4135 191.966 35.8808 192.018 35.3669 191.916C34.8529 191.813 34.3809 191.56 34.0104 191.189C33.6398 190.818 33.3875 190.345 33.2853 189.829C33.1831 189.314 33.2355 188.781 33.436 188.295C33.6366 187.81 33.9761 187.395 34.4118 187.104C34.8475 186.812 35.3597 186.656 35.8837 186.656C36.5864 186.656 37.2603 186.936 37.7571 187.434C38.254 187.932 38.5331 188.607 38.5331 189.311Z" fill="#F5F5F5"/>
<path d="M37.2315 189.314C37.2315 189.581 37.1526 189.841 37.0047 190.062C36.8568 190.284 36.6466 190.456 36.4008 190.558C36.155 190.659 35.8847 190.686 35.6241 190.633C35.3634 190.58 35.1243 190.451 34.9369 190.262C34.7495 190.073 34.6224 189.833 34.5716 189.571C34.5208 189.31 34.5487 189.039 34.6516 188.793C34.7546 188.547 34.928 188.338 35.1499 188.191C35.3718 188.044 35.6322 187.967 35.8981 187.969C36.2525 187.971 36.5917 188.114 36.8415 188.366C37.0913 188.618 37.2315 188.959 37.2315 189.314Z" fill="#F22D61"/>
<path opacity="0.3" d="M30.2448 187.811H27.2422V190.82H30.2448V187.811Z" fill="#F5F5F5"/>
<path d="M103.322 210.971H49.6641V228.469H103.322V210.971Z" fill="#263238"/>
<path d="M103.895 222.424H64.0665C63.2618 222.424 62.6094 223.078 62.6094 223.884V233.54C62.6094 234.347 63.2618 235.001 64.0665 235.001H103.895C104.7 235.001 105.352 234.347 105.352 233.54V223.884C105.352 223.078 104.7 222.424 103.895 222.424Z" fill="#F22D61"/>
<path opacity="0.2" d="M103.895 222.424H64.0665C63.2618 222.424 62.6094 223.078 62.6094 223.884V233.54C62.6094 234.347 63.2618 235.001 64.0665 235.001H103.895C104.7 235.001 105.352 234.347 105.352 233.54V223.884C105.352 223.078 104.7 222.424 103.895 222.424Z" fill="black"/>
<path d="M89.3482 222.424H49.5196C48.7149 222.424 48.0625 223.078 48.0625 223.884V233.54C48.0625 234.347 48.7149 235.001 49.5196 235.001H89.3482C90.153 235.001 90.8053 234.347 90.8053 233.54V223.884C90.8053 223.078 90.153 222.424 89.3482 222.424Z" fill="#F22D61"/>
<path opacity="0.3" d="M86.5799 228.718C86.5799 229.243 86.4246 229.756 86.1335 230.193C85.8423 230.63 85.4286 230.97 84.9445 231.171C84.4603 231.372 83.9277 231.424 83.4137 231.322C82.8998 231.219 82.4278 230.967 82.0572 230.595C81.6867 230.224 81.4344 229.751 81.3322 229.236C81.2299 228.721 81.2824 228.187 81.4829 227.702C81.6834 227.216 82.023 226.802 82.4587 226.51C82.8944 226.218 83.4066 226.062 83.9306 226.062C84.6333 226.062 85.3071 226.342 85.804 226.84C86.3008 227.338 86.5799 228.014 86.5799 228.718Z" fill="#F5F5F5"/>
<path d="M85.2941 228.716C85.2941 228.982 85.2153 229.243 85.0678 229.464C84.9203 229.685 84.7107 229.857 84.4654 229.959C84.2201 230.061 83.9502 230.088 83.6899 230.036C83.4295 229.984 83.1903 229.856 83.0025 229.668C82.8148 229.48 82.687 229.24 82.6352 228.979C82.5834 228.718 82.61 228.447 82.7115 228.202C82.8131 227.956 82.9852 227.746 83.206 227.598C83.4267 227.45 83.6862 227.371 83.9517 227.371C84.3077 227.371 84.6492 227.513 84.9009 227.765C85.1526 228.017 85.2941 228.36 85.2941 228.716Z" fill="#F22D61"/>
<path opacity="0.3" d="M78.2995 227.211H75.2969V230.22H78.2995V227.211Z" fill="#F5F5F5"/>
<path d="M103.895 209.299H64.0665C63.2618 209.299 62.6094 209.953 62.6094 210.759V220.415C62.6094 221.222 63.2618 221.876 64.0665 221.876H103.895C104.7 221.876 105.352 221.222 105.352 220.415V210.759C105.352 209.953 104.7 209.299 103.895 209.299Z" fill="#F22D61"/>
<path opacity="0.2" d="M103.895 209.299H64.0665C63.2618 209.299 62.6094 209.953 62.6094 210.759V220.415C62.6094 221.222 63.2618 221.876 64.0665 221.876H103.895C104.7 221.876 105.352 221.222 105.352 220.415V210.759C105.352 209.953 104.7 209.299 103.895 209.299Z" fill="black"/>
<path d="M89.3482 209.299H49.5196C48.7149 209.299 48.0625 209.953 48.0625 210.759V220.415C48.0625 221.222 48.7149 221.876 49.5196 221.876H89.3482C90.153 221.876 90.8053 221.222 90.8053 220.415V210.759C90.8053 209.953 90.153 209.299 89.3482 209.299Z" fill="#F22D61"/>
<path opacity="0.3" d="M86.5799 215.583C86.5799 216.108 86.4246 216.621 86.1335 217.058C85.8423 217.495 85.4286 217.835 84.9445 218.036C84.4603 218.237 83.9277 218.29 83.4137 218.187C82.8998 218.085 82.4278 217.832 82.0572 217.46C81.6867 217.089 81.4344 216.616 81.3322 216.101C81.2299 215.586 81.2824 215.052 81.4829 214.567C81.6834 214.082 82.023 213.667 82.4587 213.375C82.8944 213.083 83.4066 212.928 83.9306 212.928C84.6333 212.928 85.3071 213.207 85.804 213.705C86.3008 214.203 86.5799 214.879 86.5799 215.583Z" fill="#F5F5F5"/>
<path d="M85.2941 215.582C85.2941 215.848 85.2153 216.108 85.0678 216.329C84.9203 216.55 84.7107 216.723 84.4654 216.825C84.2201 216.926 83.9502 216.953 83.6899 216.901C83.4295 216.849 83.1903 216.721 83.0025 216.533C82.8148 216.345 82.687 216.105 82.6352 215.844C82.5834 215.583 82.61 215.313 82.7115 215.067C82.8131 214.821 82.9852 214.611 83.206 214.463C83.4267 214.315 83.6862 214.236 83.9517 214.236C84.3077 214.236 84.6492 214.378 84.9009 214.63C85.1526 214.883 85.2941 215.225 85.2941 215.582Z" fill="#F22D61"/>
<path opacity="0.3" d="M78.2995 214.076H75.2969V217.085H78.2995V214.076Z" fill="#F5F5F5"/>
<path d="M6.32596 78.2262C5.56868 78.2274 4.82805 78.0049 4.19779 77.5868C3.56754 77.1688 3.07598 76.574 2.78533 75.8777C2.49468 75.1813 2.41799 74.4148 2.56498 73.6751C2.71196 72.9354 3.07602 72.2557 3.61106 71.722C4.14611 71.1884 4.8281 70.8248 5.57074 70.6772C6.31338 70.5296 7.0833 70.6048 7.78306 70.893C8.48281 71.1813 9.08097 71.6698 9.50182 72.2967C9.92267 72.9236 10.1473 73.6608 10.1473 74.4148C10.1473 75.4246 9.74491 76.3931 9.02844 77.1077C8.31198 77.8223 7.34002 78.2245 6.32596 78.2262Z" fill="#F22D61"/>
<path opacity="0.5" d="M6.32596 78.2262C5.56868 78.2274 4.82805 78.0049 4.19779 77.5868C3.56754 77.1688 3.07598 76.574 2.78533 75.8777C2.49468 75.1813 2.41799 74.4148 2.56498 73.6751C2.71196 72.9354 3.07602 72.2557 3.61106 71.722C4.14611 71.1884 4.8281 70.8248 5.57074 70.6772C6.31338 70.5296 7.0833 70.6048 7.78306 70.893C8.48281 71.1813 9.08097 71.6698 9.50182 72.2967C9.92267 72.9236 10.1473 73.6608 10.1473 74.4148C10.1473 75.4246 9.74491 76.3931 9.02844 77.1077C8.31198 77.8223 7.34002 78.2245 6.32596 78.2262Z" fill="white"/>
<path d="M13.6979 75.8478C14.4965 72.4788 12.4011 69.1031 9.01778 68.308C5.63447 67.5129 2.24441 69.5993 1.44587 72.9683C0.647341 76.3373 2.74272 79.713 6.12603 80.5081C9.50934 81.3033 12.8994 79.2168 13.6979 75.8478Z" stroke="#F22D61" stroke-width="1.86407" stroke-miterlimit="10"/>
<path d="M117.544 73.7832H13.1562V75.0206H117.544V73.7832Z" fill="#F22D61"/>
<path d="M8.18804 68.8343H6.94532V61.4096C6.94485 61.3282 6.96053 61.2475 6.99145 61.1721C7.02237 61.0967 7.06792 61.0281 7.12551 60.9703L45.1339 23.2283C45.192 23.1709 45.2608 23.1256 45.3365 23.0948C45.4122 23.064 45.4933 23.0484 45.5751 23.0488H80.2654V24.2863H45.8298L8.18804 61.6633V68.8343Z" fill="#F22D61"/>
<path d="M98.2848 131.323H51.683C51.6012 131.324 51.5202 131.308 51.4445 131.277C51.3688 131.246 51.2999 131.201 51.2419 131.144L7.12551 87.2144C7.06792 87.1566 7.02237 87.088 6.99145 87.0126C6.96053 86.9373 6.94485 86.8565 6.94532 86.7751V80.5879H8.18804V86.5214L51.9378 130.086H98.2848V131.323Z" fill="#F22D61"/>
<path d="M67.2184 91.7247H42.2584C42.0954 91.7241 41.9392 91.6596 41.8235 91.5453L25.0469 74.945L25.923 74.0664L42.5194 90.4873H67.2184V91.7247Z" fill="#F22D61"/>
<path d="M49.9526 74.8892L49.0703 74.0168L65.791 57.2556C65.9101 57.1425 66.0677 57.0785 66.2322 57.0762H91.4531V58.3136H66.4931L49.9526 74.8892Z" fill="#F22D61"/>
<path d="M144.889 43.4667H46.2362C46.154 43.4664 46.0727 43.4498 45.997 43.4179C45.9212 43.3861 45.8526 43.3396 45.795 43.2811L35.8906 33.3197L36.773 32.4473L46.4972 42.2293H144.889V43.4667Z" fill="#F22D61"/>
<path d="M56.8825 24.1038L56.0312 23.2252L72.1865 7.13842C72.2446 7.08108 72.3134 7.03571 72.3891 7.00492C72.4648 6.97413 72.5459 6.95852 72.6277 6.95899H124.381V8.19644H72.8576L56.8825 24.1038Z" fill="#F22D61"/>
<path d="M66.9879 161.641L41.9224 136.688C41.812 136.577 41.7476 136.429 41.7422 136.273V121.424H42.9849V136.019L67.8392 160.768L66.9879 161.641Z" fill="#F22D61"/>
<path d="M61.3355 130.946L60.4531 130.086L76.9315 113.572C77.0506 113.459 77.2082 113.395 77.3727 113.393H139.912V114.63H77.6336L61.3355 130.946Z" fill="#F22D61"/>
<path d="M119.41 148.647H91.5542C91.4724 148.648 91.3913 148.632 91.3156 148.601C91.2399 148.571 91.171 148.525 91.113 148.468L73.6094 131.038L74.4917 130.166L91.8089 147.41H119.41V148.647Z" fill="#F22D61"/>
<path d="M124.385 10.4116C125.957 10.4116 127.231 9.14293 127.231 7.57789C127.231 6.01285 125.957 4.74414 124.385 4.74414C122.813 4.74414 121.539 6.01285 121.539 7.57789C121.539 9.14293 122.813 10.4116 124.385 10.4116Z" fill="#F22D61"/>
<path d="M85.8552 30.2133C84.555 30.2133 83.284 29.8293 82.2029 29.11C81.1218 28.3908 80.2792 27.3684 79.7817 26.1723C79.2841 24.9761 79.1539 23.6599 79.4076 22.3901C79.6612 21.1203 80.2873 19.9539 81.2067 19.0384C82.1261 18.1229 83.2975 17.4995 84.5727 17.2469C85.8479 16.9943 87.1697 17.1239 88.371 17.6194C89.5722 18.1148 90.5989 18.9539 91.3212 20.0304C92.0436 21.1069 92.4292 22.3725 92.4292 23.6672C92.4292 25.4033 91.7366 27.0683 90.5037 28.296C89.2709 29.5236 87.5987 30.2133 85.8552 30.2133ZM85.8552 18.3585C84.8008 18.3585 83.7701 18.6699 82.8933 19.2532C82.0166 19.8365 81.3333 20.6656 80.9298 21.6356C80.5263 22.6057 80.4207 23.6731 80.6264 24.7028C80.8321 25.7326 81.3399 26.6785 82.0854 27.4209C82.831 28.1634 83.781 28.669 84.8151 28.8738C85.8493 29.0786 86.9212 28.9735 87.8954 28.5717C88.8695 28.1699 89.7022 27.4895 90.288 26.6165C90.8738 25.7435 91.1864 24.7171 91.1864 23.6672C91.1848 22.2597 90.6226 20.9104 89.6232 19.9152C88.6237 18.92 87.2686 18.3602 85.8552 18.3585Z" fill="#F22D61"/>
<path d="M85.8614 26.4995C87.4331 26.4995 88.7072 25.2308 88.7072 23.6658C88.7072 22.1007 87.4331 20.832 85.8614 20.832C84.2897 20.832 83.0156 22.1007 83.0156 23.6658C83.0156 25.2308 84.2897 26.4995 85.8614 26.4995Z" fill="#F22D61"/>
<path d="M147.731 42.9513C147.729 43.5115 147.562 44.0587 147.248 44.5239C146.935 44.9891 146.49 45.3514 145.97 45.5649C145.449 45.7784 144.878 45.8337 144.326 45.7236C143.774 45.6136 143.268 45.3432 142.87 44.9467C142.473 44.5501 142.203 44.0452 142.093 43.4956C141.984 42.9461 142.041 42.3767 142.256 41.8592C142.472 41.3418 142.837 40.8996 143.304 40.5885C143.772 40.2774 144.322 40.1113 144.885 40.1113C145.259 40.1113 145.63 40.1848 145.975 40.3276C146.321 40.4704 146.635 40.6797 146.899 40.9435C147.164 41.2073 147.373 41.5204 147.516 41.8649C147.659 42.2095 147.731 42.5786 147.731 42.9513Z" fill="#F22D61"/>
<path d="M91.4474 60.5288C93.0191 60.5288 94.2932 59.2601 94.2932 57.6951C94.2932 56.13 93.0191 54.8613 91.4474 54.8613C89.8757 54.8613 88.6016 56.13 88.6016 57.6951C88.6016 59.2601 89.8757 60.5288 91.4474 60.5288Z" fill="#F22D61"/>
<path d="M123.136 80.9457C121.836 80.9457 120.565 80.5618 119.484 79.8425C118.403 79.1232 117.56 78.1008 117.063 76.9047C116.565 75.7085 116.435 74.3923 116.689 73.1225C116.942 71.8527 117.569 70.6863 118.488 69.7708C119.407 68.8553 120.579 68.2319 121.854 67.9793C123.129 67.7267 124.451 67.8564 125.652 68.3518C126.853 68.8473 127.88 69.6863 128.602 70.7628C129.325 71.8393 129.71 73.1049 129.71 74.3996C129.71 76.1357 129.018 77.8007 127.785 79.0284C126.552 80.256 124.88 80.9457 123.136 80.9457ZM123.136 69.091C122.082 69.091 121.051 69.4023 120.175 69.9856C119.298 70.569 118.615 71.398 118.211 72.3681C117.808 73.3381 117.702 74.4055 117.908 75.4353C118.113 76.465 118.621 77.4109 119.367 78.1534C120.112 78.8958 121.062 79.4014 122.096 79.6062C123.131 79.8111 124.202 79.7059 125.177 79.3041C126.151 78.9023 126.983 78.2219 127.569 77.3489C128.155 76.4759 128.468 75.4495 128.468 74.3996C128.466 72.9922 127.904 71.6428 126.904 70.6476C125.905 69.6524 124.55 69.0926 123.136 69.091Z" fill="#F22D61"/>
<path d="M123.143 77.2359C124.714 77.2359 125.988 75.9671 125.988 74.4021C125.988 72.8371 124.714 71.5684 123.143 71.5684C121.571 71.5684 120.297 72.8371 120.297 74.4021C120.297 75.9671 121.571 77.2359 123.143 77.2359Z" fill="#F22D61"/>
<path d="M67.2208 93.9409C68.7925 93.9409 70.0666 92.6722 70.0666 91.1072C70.0666 89.5422 68.7925 88.2734 67.2208 88.2734C65.6491 88.2734 64.375 89.5422 64.375 91.1072C64.375 92.6722 65.6491 93.9409 67.2208 93.9409Z" fill="#F22D61"/>
<path d="M139.916 116.834C141.488 116.834 142.762 115.565 142.762 114C142.762 112.435 141.488 111.166 139.916 111.166C138.344 111.166 137.07 112.435 137.07 114C137.07 115.565 138.344 116.834 139.916 116.834Z" fill="#F22D61"/>
<path d="M103.875 137.153C102.574 137.155 101.301 136.771 100.218 136.052C99.1351 135.333 98.2907 134.31 97.7917 133.113C97.2927 131.916 97.1616 130.598 97.4147 129.327C97.6679 128.055 98.2941 126.887 99.2142 125.97C100.134 125.053 101.307 124.429 102.583 124.175C103.86 123.922 105.183 124.051 106.386 124.547C107.589 125.043 108.617 125.883 109.34 126.96C110.063 128.038 110.449 129.305 110.449 130.601C110.449 132.338 109.757 134.003 108.524 135.232C107.292 136.461 105.62 137.152 103.875 137.153ZM103.875 125.292C102.819 125.291 101.786 125.602 100.908 126.186C100.029 126.769 99.344 127.599 98.9393 128.571C98.5345 129.542 98.4283 130.611 98.634 131.643C98.8398 132.674 99.3483 133.622 100.095 134.365C100.842 135.109 101.794 135.615 102.829 135.82C103.865 136.025 104.939 135.919 105.915 135.516C106.89 135.113 107.724 134.431 108.31 133.556C108.896 132.681 109.208 131.653 109.207 130.601C109.205 129.194 108.643 127.844 107.643 126.849C106.644 125.854 105.289 125.294 103.875 125.292Z" fill="#F22D61"/>
<path d="M106.723 130.599C106.723 131.16 106.556 131.708 106.243 132.174C105.931 132.64 105.486 133.003 104.966 133.217C104.446 133.432 103.874 133.488 103.322 133.379C102.77 133.269 102.263 132.999 101.865 132.603C101.467 132.207 101.196 131.702 101.086 131.152C100.976 130.603 101.032 130.033 101.248 129.515C101.463 128.997 101.828 128.555 102.296 128.243C102.764 127.932 103.314 127.766 103.877 127.766C104.631 127.767 105.354 128.066 105.888 128.597C106.421 129.128 106.721 129.848 106.723 130.599Z" fill="#F22D61"/>
<path d="M119.408 150.863C120.98 150.863 122.254 149.594 122.254 148.029C122.254 146.464 120.98 145.195 119.408 145.195C117.837 145.195 116.562 146.464 116.562 148.029C116.562 149.594 117.837 150.863 119.408 150.863Z" fill="#F22D61"/>
<path d="M70.2744 161.226C70.2756 161.788 70.1094 162.338 69.7967 162.806C69.4841 163.274 69.0391 163.639 68.5181 163.854C67.997 164.07 67.4234 164.128 66.8697 164.019C66.3161 163.91 65.8073 163.64 65.4078 163.243C65.0084 162.846 64.7361 162.34 64.6256 161.789C64.515 161.238 64.5711 160.666 64.7868 160.147C65.0025 159.628 65.368 159.184 65.8372 158.872C66.3063 158.559 66.858 158.393 67.4223 158.393C68.1772 158.394 68.9007 158.693 69.435 159.224C69.9693 159.755 70.2711 160.475 70.2744 161.226Z" fill="#F22D61"/>
<path d="M142.26 0H131.884C131.365 0 130.945 0.418288 130.945 0.934272V14.9978C130.945 15.5138 131.365 15.9321 131.884 15.9321H142.26C142.778 15.9321 143.198 15.5138 143.198 14.9978V0.934272C143.198 0.418288 142.778 0 142.26 0Z" fill="#F22D61"/>
<path opacity="0.6" d="M142.26 0H131.884C131.365 0 130.945 0.418288 130.945 0.934272V14.9978C130.945 15.5138 131.365 15.9321 131.884 15.9321H142.26C142.778 15.9321 143.198 15.5138 143.198 14.9978V0.934272C143.198 0.418288 142.778 0 142.26 0Z" fill="white"/>
<path d="M141.367 2.26562H132.773V3.12565H141.367V2.26562Z" fill="#F22D61"/>
<path d="M141.367 3.76953H132.773V4.62956H141.367V3.76953Z" fill="#F22D61"/>
<path d="M141.367 5.2793H132.773V6.13932H141.367V5.2793Z" fill="#F22D61"/>
<path d="M141.367 6.7793H132.773V7.63932H141.367V6.7793Z" fill="#F22D61"/>
<path d="M141.367 8.29102H132.773V9.15104H141.367V8.29102Z" fill="#F22D61"/>
<path d="M141.367 9.79883H132.773V10.6589H141.367V9.79883Z" fill="#F22D61"/>
<path d="M141.367 11.3027H132.773V12.1628H141.367V11.3027Z" fill="#F22D61"/>
<path d="M138.341 12.8145H132.773V13.6745H138.341V12.8145Z" fill="#F22D61"/>
<path d="M84.518 84.4805H74.1414C73.6232 84.4805 73.2031 84.8988 73.2031 85.4147V99.4783C73.2031 99.9943 73.6232 100.413 74.1414 100.413H84.518C85.0362 100.413 85.4563 99.9943 85.4563 99.4783V85.4147C85.4563 84.8988 85.0362 84.4805 84.518 84.4805Z" fill="#F22D61"/>
<path opacity="0.6" d="M84.518 84.4805H74.1414C73.6232 84.4805 73.2031 84.8988 73.2031 85.4147V99.4783C73.2031 99.9943 73.6232 100.413 74.1414 100.413H84.518C85.0362 100.413 85.4563 99.9943 85.4563 99.4783V85.4147C85.4563 84.8988 85.0362 84.4805 84.518 84.4805Z" fill="white"/>
<path d="M83.6246 86.7383H75.0312V87.5983H83.6246V86.7383Z" fill="#F22D61"/>
<path d="M83.6246 88.248H75.0312V89.1081H83.6246V88.248Z" fill="#F22D61"/>
<path d="M83.6246 89.752H75.0312V90.612H83.6246V89.752Z" fill="#F22D61"/>
<path d="M83.6246 91.2617H75.0312V92.1217H83.6246V91.2617Z" fill="#F22D61"/>
<path d="M83.6246 92.7637H75.0312V93.6237H83.6246V92.7637Z" fill="#F22D61"/>
<path d="M83.6246 94.2754H75.0312V95.1354H83.6246V94.2754Z" fill="#F22D61"/>
<path d="M83.6246 95.7852H75.0312V96.6452H83.6246V95.7852Z" fill="#F22D61"/>
<path d="M80.5986 97.2891H75.0312V98.1491H80.5986V97.2891Z" fill="#F22D61"/>
<path d="M156.206 101.625H145.829C145.311 101.625 144.891 102.043 144.891 102.559V116.623C144.891 117.139 145.311 117.557 145.829 117.557H156.206C156.724 117.557 157.144 117.139 157.144 116.623V102.559C157.144 102.043 156.724 101.625 156.206 101.625Z" fill="#F22D61"/>
<path opacity="0.6" d="M156.206 101.625H145.829C145.311 101.625 144.891 102.043 144.891 102.559V116.623C144.891 117.139 145.311 117.557 145.829 117.557H156.206C156.724 117.557 157.144 117.139 157.144 116.623V102.559C157.144 102.043 156.724 101.625 156.206 101.625Z" fill="white"/>
<path d="M155.304 103.891H146.711V104.751H155.304V103.891Z" fill="#F22D61"/>
<path d="M155.304 105.393H146.711V106.253H155.304V105.393Z" fill="#F22D61"/>
<path d="M155.304 106.902H146.711V107.762H155.304V106.902Z" fill="#F22D61"/>
<path d="M155.304 108.412H146.711V109.272H155.304V108.412Z" fill="#F22D61"/>
<path d="M155.304 109.916H146.711V110.776H155.304V109.916Z" fill="#F22D61"/>
<path d="M155.304 111.426H146.711V112.286H155.304V111.426Z" fill="#F22D61"/>
<path d="M155.304 112.928H146.711V113.788H155.304V112.928Z" fill="#F22D61"/>
<path d="M152.278 114.439H146.711V115.299H152.278V114.439Z" fill="#F22D61"/>
<path d="M161.065 30.5449H150.688C150.17 30.5449 149.75 30.9632 149.75 31.4792V45.5427C149.75 46.0587 150.17 46.477 150.688 46.477H161.065C161.583 46.477 162.003 46.0587 162.003 45.5427V31.4792C162.003 30.9632 161.583 30.5449 161.065 30.5449Z" fill="#F22D61"/>
<path opacity="0.6" d="M161.065 30.5449H150.688C150.17 30.5449 149.75 30.9632 149.75 31.4792V45.5427C149.75 46.0587 150.17 46.477 150.688 46.477H161.065C161.583 46.477 162.003 46.0587 162.003 45.5427V31.4792C162.003 30.9632 161.583 30.5449 161.065 30.5449Z" fill="white"/>
<path d="M160.164 32.8105H151.57V33.6706H160.164V32.8105Z" fill="#F22D61"/>
<path d="M160.164 34.3145H151.57V35.1745H160.164V34.3145Z" fill="#F22D61"/>
<path d="M160.164 35.8242H151.57V36.6842H160.164V35.8242Z" fill="#F22D61"/>
<path d="M160.164 37.334H151.57V38.194H160.164V37.334Z" fill="#F22D61"/>
<path d="M160.164 38.8359H151.57V39.696H160.164V38.8359Z" fill="#F22D61"/>
<path d="M160.164 40.3477H151.57V41.2077H160.164V40.3477Z" fill="#F22D61"/>
<path d="M160.164 41.8516H151.57V42.7116H160.164V41.8516Z" fill="#F22D61"/>
<path d="M157.138 43.3594H151.57V44.2194H157.138V43.3594Z" fill="#F22D61"/>
<path d="M84.7524 158.057H74.3757C73.8576 158.057 73.4375 158.475 73.4375 158.991V173.054C73.4375 173.57 73.8576 173.989 74.3757 173.989H84.7524C85.2706 173.989 85.6907 173.57 85.6907 173.054V158.991C85.6907 158.475 85.2706 158.057 84.7524 158.057Z" fill="#F22D61"/>
<path opacity="0.6" d="M84.7524 158.057H74.3757C73.8576 158.057 73.4375 158.475 73.4375 158.991V173.054C73.4375 173.57 73.8576 173.989 74.3757 173.989H84.7524C85.2706 173.989 85.6907 173.57 85.6907 173.054V158.991C85.6907 158.475 85.2706 158.057 84.7524 158.057Z" fill="white"/>
<path d="M83.859 160.322H75.2656V161.182H83.859V160.322Z" fill="#F22D61"/>
<path d="M83.859 161.826H75.2656V162.686H83.859V161.826Z" fill="#F22D61"/>
<path d="M83.859 163.336H75.2656V164.196H83.859V163.336Z" fill="#F22D61"/>
<path d="M83.859 164.84H75.2656V165.7H83.859V164.84Z" fill="#F22D61"/>
<path d="M83.859 166.35H75.2656V167.21H83.859V166.35Z" fill="#F22D61"/>
<path d="M83.859 167.859H75.2656V168.719H83.859V167.859Z" fill="#F22D61"/>
<path d="M83.859 169.363H75.2656V170.223H83.859V169.363Z" fill="#F22D61"/>
<path d="M80.833 170.873H75.2656V171.733H80.833V170.873Z" fill="#F22D61"/>
<path d="M160.047 59.832H133.379C132.85 59.832 132.422 60.2586 132.422 60.7849V87.3404C132.422 87.8667 132.85 88.2933 133.379 88.2933H160.047C160.576 88.2933 161.004 87.8667 161.004 87.3404V60.7849C161.004 60.2586 160.576 59.832 160.047 59.832Z" fill="#F22D61"/>
<path opacity="0.5" d="M146.717 83.653C152.036 83.653 156.348 79.3594 156.348 74.0629C156.348 68.7663 152.036 64.4727 146.717 64.4727C141.398 64.4727 137.086 68.7663 137.086 74.0629C137.086 79.3594 141.398 83.653 146.717 83.653Z" fill="white"/>
<path opacity="0.7" d="M146.716 74.0604H156.347C156.341 76.1675 155.638 78.2141 154.347 79.8831C153.055 81.5521 151.247 82.7504 149.202 83.2924C147.157 83.8344 144.99 83.6897 143.036 82.881C141.082 82.0722 139.45 80.6443 138.394 78.8186C137.337 76.9929 136.915 74.8713 137.192 72.7823C137.469 70.6934 138.431 68.7538 139.927 67.2639C141.423 65.7741 143.371 64.8171 145.469 64.5414C147.567 64.2656 149.698 64.6864 151.531 65.7386L146.716 74.0604Z" fill="white"/>
<path d="M146.714 81.488C150.832 81.488 154.17 78.1639 154.17 74.0633C154.17 69.9628 150.832 66.6387 146.714 66.6387C142.596 66.6387 139.258 69.9628 139.258 74.0633C139.258 78.1639 142.596 81.488 146.714 81.488Z" fill="#F22D61"/>
<path opacity="0.3" d="M146.714 81.488C150.832 81.488 154.17 78.1639 154.17 74.0633C154.17 69.9628 150.832 66.6387 146.714 66.6387C142.596 66.6387 139.258 69.9628 139.258 74.0633C139.258 78.1639 142.596 81.488 146.714 81.488Z" fill="white"/>
<path d="M146.62 74.9016C146.424 74.9016 146.257 74.8483 146.12 74.7418C145.982 74.6344 145.877 74.4789 145.804 74.2754C145.731 74.071 145.695 73.8241 145.695 73.5348C145.695 73.2473 145.731 73.0017 145.804 72.7982C145.878 72.5938 145.983 72.4378 146.121 72.3304C146.26 72.2222 146.426 72.168 146.62 72.168C146.814 72.168 146.98 72.2222 147.117 72.3304C147.256 72.4378 147.362 72.5938 147.434 72.7982C147.508 73.0017 147.545 73.2473 147.545 73.5348C147.545 73.8241 147.509 74.071 147.436 74.2754C147.363 74.4789 147.258 74.6344 147.12 74.7418C146.982 74.8483 146.816 74.9016 146.62 74.9016ZM146.62 74.6158C146.814 74.6158 146.965 74.5222 147.072 74.3352C147.179 74.1481 147.233 73.8813 147.233 73.5348C147.233 73.3044 147.208 73.1082 147.159 72.9463C147.111 72.7843 147.04 72.6609 146.949 72.576C146.858 72.4911 146.748 72.4487 146.62 72.4487C146.428 72.4487 146.277 72.5435 146.169 72.7332C146.061 72.922 146.007 73.1892 146.007 73.5348C146.007 73.7652 146.031 73.961 146.079 74.1221C146.128 74.2832 146.198 74.4057 146.289 74.4898C146.38 74.5738 146.491 74.6158 146.62 74.6158ZM149.395 74.3663V74.226C149.395 74.129 149.415 74.0402 149.455 73.9597C149.495 73.8783 149.554 73.8133 149.631 73.7648C149.709 73.7154 149.804 73.6907 149.915 73.6907C150.027 73.6907 150.122 73.7154 150.198 73.7648C150.274 73.8133 150.332 73.8783 150.371 73.9597C150.41 74.0402 150.429 74.129 150.429 74.226V74.3663C150.429 74.4633 150.409 74.5526 150.369 74.634C150.33 74.7145 150.272 74.7795 150.195 74.8289C150.119 74.8774 150.026 74.9016 149.915 74.9016C149.802 74.9016 149.707 74.8774 149.63 74.8289C149.553 74.7795 149.495 74.7145 149.455 74.634C149.415 74.5526 149.395 74.4633 149.395 74.3663ZM149.66 74.226V74.3663C149.66 74.4469 149.679 74.5192 149.717 74.5833C149.755 74.6465 149.821 74.6781 149.915 74.6781C150.006 74.6781 150.07 74.6465 150.107 74.5833C150.145 74.5192 150.164 74.4469 150.164 74.3663V74.226C150.164 74.1455 150.146 74.0736 150.11 74.0103C150.073 73.9462 150.008 73.9142 149.915 73.9142C149.824 73.9142 149.758 73.9462 149.719 74.0103C149.68 74.0736 149.66 74.1455 149.66 74.226ZM148.07 72.8436V72.7033C148.07 72.6063 148.09 72.5175 148.13 72.437C148.17 72.3556 148.229 72.2906 148.306 72.2421C148.384 72.1927 148.479 72.168 148.59 72.168C148.702 72.168 148.797 72.1927 148.873 72.2421C148.949 72.2906 149.007 72.3556 149.046 72.437C149.085 72.5175 149.104 72.6063 149.104 72.7033V72.8436C149.104 72.9406 149.084 73.0299 149.044 73.1113C149.005 73.1918 148.947 73.2568 148.87 73.3062C148.794 73.3547 148.7 73.3789 148.59 73.3789C148.477 73.3789 148.382 73.3547 148.305 73.3062C148.228 73.2568 148.169 73.1918 148.13 73.1113C148.09 73.0299 148.07 72.9406 148.07 72.8436ZM148.335 72.7033V72.8436C148.335 72.9242 148.354 72.9965 148.392 73.0606C148.43 73.1238 148.496 73.1555 148.59 73.1555C148.68 73.1555 148.745 73.1238 148.782 73.0606C148.82 72.9965 148.839 72.9242 148.839 72.8436V72.7033C148.839 72.6228 148.821 72.5509 148.784 72.4877C148.748 72.4236 148.683 72.3915 148.59 72.3915C148.499 72.3915 148.433 72.4236 148.393 72.4877C148.354 72.5509 148.335 72.6228 148.335 72.7033ZM148.169 74.8652L149.998 72.2044H150.294L148.465 74.8652H148.169Z" fill="white"/>
<path d="M133.505 119.877H113.211C112.81 119.877 112.484 120.201 112.484 120.601V140.808C112.484 141.208 112.81 141.532 113.211 141.532H133.505C133.906 141.532 134.232 141.208 134.232 140.808V120.601C134.232 120.201 133.906 119.877 133.505 119.877Z" fill="#F22D61"/>
<path opacity="0.5" d="M130.288 137.9H127.492V139.317H130.288V137.9Z" fill="white"/>
<path d="M130.288 123.764H127.492V125.181H130.288V123.764Z" fill="white"/>
<path d="M130.288 126.119H127.492V127.536H130.288V126.119Z" fill="white"/>
<path opacity="0.75" d="M130.288 128.479H127.492V129.895H130.288V128.479Z" fill="white"/>
<path opacity="0.5" d="M130.288 130.83H127.492V132.247H130.288V130.83Z" fill="white"/>
<path opacity="0.5" d="M130.288 133.186H127.492V134.602H130.288V133.186Z" fill="white"/>
<path opacity="0.5" d="M130.288 135.545H127.492V136.962H130.288V135.545Z" fill="white"/>
<path opacity="0.5" d="M126.484 137.9H123.688V139.317H126.484V137.9Z" fill="white"/>
<path d="M126.484 130.83H123.688V132.247H126.484V130.83Z" fill="white"/>
<path opacity="0.75" d="M126.484 133.186H123.688V134.602H126.484V133.186Z" fill="white"/>
<path opacity="0.5" d="M126.484 135.545H123.688V136.962H126.484V135.545Z" fill="white"/>
<path opacity="0.5" d="M122.671 137.9H119.875V139.317H122.671V137.9Z" fill="white"/>
<path d="M122.671 128.479H119.875V129.895H122.671V128.479Z" fill="white"/>
<path opacity="0.75" d="M122.671 130.83H119.875V132.247H122.671V130.83Z" fill="white"/>
<path opacity="0.5" d="M122.671 133.186H119.875V134.602H122.671V133.186Z" fill="white"/>
<path opacity="0.5" d="M122.671 135.545H119.875V136.962H122.671V135.545Z" fill="white"/>
<path opacity="0.5" d="M118.874 137.9H116.078V139.317H118.874V137.9Z" fill="white"/>
<path d="M118.874 133.186H116.078V134.602H118.874V133.186Z" fill="white"/>
<path opacity="0.75" d="M118.874 135.545H116.078V136.962H118.874V135.545Z" fill="white"/>
<path d="M116.872 15.6719H96.5786C96.1771 15.6719 95.8516 15.996 95.8516 16.3958V36.6033C95.8516 37.0031 96.1771 37.3272 96.5786 37.3272H116.872C117.274 37.3272 117.599 37.0031 117.599 36.6033V16.3958C117.599 15.996 117.274 15.6719 116.872 15.6719Z" fill="#F22D61"/>
<path opacity="0.9" d="M108.297 24.1497V22.7946L107.595 22.7328C107.502 22.2906 107.325 21.8704 107.073 21.4953L107.52 20.9509L106.563 19.9547L106.016 20.4064C105.639 20.1559 105.217 19.9795 104.774 19.8867L104.705 19.1875H103.345L103.283 19.8867C102.839 19.9802 102.417 20.1566 102.04 20.4064L101.499 19.9547L100.536 20.9137L100.983 21.4582C100.735 21.8357 100.559 22.255 100.462 22.6957L99.7656 22.7575V24.1125L100.462 24.1806C100.56 24.6207 100.737 25.0397 100.983 25.418L100.536 25.9625L101.499 26.9215L102.04 26.4699C102.417 26.7196 102.839 26.896 103.283 26.9896L103.345 27.6887H104.705L104.774 26.9896C105.217 26.8967 105.639 26.7203 106.016 26.4699L106.563 26.9215L107.52 25.9625L107.073 25.418C107.324 25.0424 107.501 24.6224 107.595 24.1806L108.297 24.1497ZM104.016 25.3067C103.647 25.3067 103.287 25.1978 102.98 24.9938C102.674 24.7899 102.435 24.5 102.294 24.1608C102.152 23.8216 102.116 23.4484 102.187 23.0884C102.259 22.7283 102.437 22.3976 102.698 22.138C102.958 21.8784 103.29 21.7016 103.652 21.63C104.014 21.5584 104.388 21.5951 104.729 21.7356C105.07 21.8761 105.361 22.114 105.566 22.4193C105.77 22.7245 105.88 23.0834 105.88 23.4505C105.88 23.9428 105.683 24.4149 105.334 24.763C104.984 25.1111 104.51 25.3067 104.016 25.3067Z" fill="white"/>
<path opacity="0.6" d="M113.82 27.9982V26.934L113.273 26.8845C113.199 26.5341 113.06 26.2004 112.863 25.9007L113.217 25.48L112.465 24.7252L112.037 25.0778C111.738 24.8819 111.405 24.7434 111.055 24.6695L110.999 24.125H109.937L109.881 24.6695C109.531 24.7434 109.198 24.8819 108.899 25.0778L108.47 24.7252L107.718 25.48L108.072 25.9007C107.873 26.1991 107.734 26.5332 107.662 26.8845L107.109 26.934V27.9982L107.662 28.0477C107.734 28.3971 107.873 28.7292 108.072 29.0253L107.718 29.4522L108.47 30.2009L108.899 29.8544C109.198 30.0484 109.531 30.1848 109.881 30.2565L109.937 30.8072H110.999L111.055 30.2565C111.405 30.1848 111.738 30.0484 112.037 29.8544L112.465 30.2009L113.217 29.4522L112.863 29.0253C113.06 28.7278 113.199 28.3962 113.273 28.0477L113.82 27.9982ZM110.465 28.9015C110.178 28.9015 109.898 28.8168 109.66 28.6581C109.421 28.4995 109.236 28.2739 109.127 28.0102C109.017 27.7464 108.989 27.4562 109.045 27.1764C109.102 26.8966 109.24 26.6397 109.443 26.4383C109.646 26.237 109.905 26.1002 110.186 26.0452C110.467 25.9903 110.759 26.0198 111.023 26.1298C111.287 26.2399 111.513 26.4256 111.671 26.6635C111.83 26.9014 111.914 27.1807 111.912 27.4661C111.91 27.6546 111.87 27.8408 111.796 28.014C111.721 28.1873 111.613 28.3441 111.477 28.4757C111.342 28.6073 111.181 28.711 111.005 28.7808C110.83 28.8507 110.642 28.8854 110.452 28.883L110.465 28.9015Z" fill="white"/>
<path opacity="0.4" d="M108.298 30.9921V30.1011L107.839 30.0578C107.776 29.7622 107.658 29.4809 107.491 29.2287L107.789 28.8761L107.167 28.2574L106.807 28.5543C106.558 28.3843 106.277 28.2665 105.981 28.2079L105.937 27.75H105.042L104.999 28.2079C104.703 28.2687 104.423 28.3864 104.173 28.5543L103.818 28.2574L103.197 28.8761L103.489 29.2287C103.324 29.4812 103.208 29.7625 103.147 30.0578L102.688 30.1011V30.9921L103.147 31.0354C103.209 31.3285 103.325 31.6075 103.489 31.8583L103.197 32.211L103.818 32.8297L104.173 32.5389C104.424 32.7024 104.705 32.8178 104.999 32.8792L105.042 33.3371H105.937L105.981 32.8792C106.276 32.8201 106.556 32.7045 106.807 32.5389L107.167 32.8297L107.789 32.211L107.491 31.8583C107.657 31.6078 107.775 31.3288 107.839 31.0354L108.298 30.9921ZM105.477 31.7531C105.238 31.7531 105.003 31.6824 104.804 31.5498C104.605 31.4172 104.45 31.2288 104.358 31.0083C104.266 30.7879 104.242 30.5453 104.289 30.3112C104.336 30.0772 104.451 29.8622 104.621 29.6935C104.79 29.5248 105.006 29.4099 105.241 29.3633C105.476 29.3167 105.72 29.3406 105.941 29.432C106.162 29.5233 106.352 29.6779 106.485 29.8763C106.618 30.0747 106.689 30.308 106.689 30.5466C106.681 30.8641 106.551 31.1665 106.325 31.3911C106.1 31.6157 105.796 31.7453 105.477 31.7531Z" fill="white"/>
<path d="M115.49 51.3535H96.3828V63.728H115.49V51.3535Z" fill="#F22D61"/>
<path opacity="0.6" d="M115.49 51.3535H96.3828V63.728H115.49V51.3535Z" fill="white"/>
<path d="M114.787 53.6738H97.0781V63.1093H114.787V53.6738Z" fill="#F22D61"/>
<path d="M111.622 55.0859H98.5234V55.4949H111.622V55.0859Z" fill="white"/>
<path d="M104.812 56.3281H98.5234V56.7371H104.812V56.3281Z" fill="white"/>
<path d="M106.44 57.5723H98.5234V57.9813H106.44V57.5723Z" fill="white"/>
<path d="M101.313 58.8145H98.5234V59.2234H101.313V58.8145Z" fill="white"/>
<path d="M100.332 60.0586H98.5234V60.4676H100.332V60.0586Z" fill="white"/>
<path d="M145.935 145.711H126.828V158.085H145.935V145.711Z" fill="#F22D61"/>
<path opacity="0.6" d="M145.935 145.711H126.828V158.085H145.935V145.711Z" fill="white"/>
<path d="M145.232 148.029H127.523V157.465H145.232V148.029Z" fill="#F22D61"/>
<path d="M142.067 149.439H128.969V149.848H142.067V149.439Z" fill="white"/>
<path d="M135.257 150.684H128.969V151.093H135.257V150.684Z" fill="white"/>
<path d="M136.885 151.926H128.969V152.335H136.885V151.926Z" fill="white"/>
<path d="M131.759 153.17H128.969V153.579H131.759V153.17Z" fill="white"/>
<path d="M130.777 154.414H128.969V154.823H130.777V154.414Z" fill="white"/>
<g opacity="0.4">
<path d="M117.545 73.7832H11.9141V75.0206H117.545V73.7832Z" fill="white"/>
<path d="M8.18804 68.8343H6.94532V61.4096C6.94485 61.3282 6.96053 61.2475 6.99145 61.1721C7.02237 61.0967 7.06792 61.0281 7.12551 60.9703L45.1339 23.2283C45.192 23.1709 45.2608 23.1256 45.3365 23.0948C45.4122 23.064 45.4933 23.0484 45.5751 23.0488H80.2654V24.2863H45.8298L8.18804 61.6633V68.8343Z" fill="white"/>
<path d="M98.2848 131.323H51.683C51.6012 131.324 51.5202 131.308 51.4445 131.277C51.3688 131.246 51.2999 131.201 51.2419 131.144L7.12551 87.2144C7.06792 87.1566 7.02237 87.088 6.99145 87.0126C6.96053 86.9373 6.94485 86.8565 6.94532 86.7751V80.5879H8.18804V86.5214L51.9378 130.086H98.2848V131.323Z" fill="white"/>
<path d="M67.2184 91.7247H42.2584C42.0954 91.7241 41.9392 91.6596 41.8235 91.5453L25.0469 74.945L25.923 74.0664L42.5194 90.4873H67.2184V91.7247Z" fill="white"/>
<path d="M49.9448 74.8911L49.0625 74.0187L65.7832 57.2576C65.9023 57.1445 66.0599 57.0804 66.2244 57.0781H91.4452V58.3156H66.4853L49.9448 74.8911Z" fill="white"/>
<path d="M144.889 43.4667H46.2362C46.154 43.4664 46.0727 43.4498 45.997 43.4179C45.9212 43.3861 45.8526 43.3396 45.795 43.2811L35.8906 33.3197L36.773 32.4473L46.4972 42.2293H144.889V43.4667Z" fill="white"/>
<path d="M56.8825 24.1057L56.0312 23.2272L72.1865 7.14038C72.2446 7.08303 72.3134 7.03766 72.3891 7.00687C72.4648 6.97608 72.5459 6.96048 72.6277 6.96095H124.381V8.19839H72.8576L56.8825 24.1057Z" fill="white"/>
<path d="M66.9879 161.643L41.9224 136.69C41.812 136.579 41.7476 136.431 41.7422 136.275V121.426H42.9849V136.021L67.8392 160.77L66.9879 161.643Z" fill="white"/>
<path d="M61.3355 130.948L60.4531 130.088L76.9315 113.574C77.0506 113.461 77.2082 113.397 77.3727 113.395H139.912V114.632H77.6336L61.3355 130.948Z" fill="white"/>
<path d="M119.41 148.649H91.5542C91.4724 148.65 91.3913 148.634 91.3156 148.603C91.2399 148.572 91.171 148.527 91.113 148.47L73.6094 131.04L74.4917 130.168L91.8089 147.412H119.41V148.649Z" fill="white"/>
<path d="M124.377 10.4136C125.949 10.4136 127.223 9.14488 127.223 7.57984C127.223 6.01481 125.949 4.74609 124.377 4.74609C122.805 4.74609 121.531 6.01481 121.531 7.57984C121.531 9.14488 122.805 10.4136 124.377 10.4136Z" fill="white"/>
<path d="M85.8552 30.2133C84.555 30.2133 83.284 29.8293 82.2029 29.11C81.1218 28.3908 80.2792 27.3684 79.7817 26.1723C79.2841 24.9761 79.1539 23.6599 79.4076 22.3901C79.6612 21.1203 80.2873 19.9539 81.2067 19.0384C82.1261 18.1229 83.2975 17.4995 84.5727 17.2469C85.8479 16.9943 87.1697 17.1239 88.371 17.6194C89.5722 18.1148 90.5989 18.9539 91.3212 20.0304C92.0436 21.1069 92.4292 22.3725 92.4292 23.6672C92.4292 25.4033 91.7366 27.0683 90.5037 28.296C89.2709 29.5236 87.5987 30.2133 85.8552 30.2133ZM85.8552 18.3585C84.8008 18.3585 83.7701 18.6699 82.8933 19.2532C82.0166 19.8365 81.3333 20.6656 80.9298 21.6356C80.5263 22.6057 80.4207 23.6731 80.6264 24.7028C80.8321 25.7326 81.3399 26.6785 82.0854 27.4209C82.831 28.1634 83.781 28.669 84.8151 28.8738C85.8493 29.0786 86.9212 28.9735 87.8954 28.5717C88.8695 28.1699 89.7022 27.4895 90.288 26.6165C90.8738 25.7435 91.1864 24.7171 91.1864 23.6672C91.1848 22.2597 90.6226 20.9104 89.6232 19.9152C88.6237 18.92 87.2686 18.3602 85.8552 18.3585Z" fill="white"/>
<path d="M147.731 42.9513C147.729 43.5115 147.562 44.0587 147.248 44.5239C146.935 44.9891 146.49 45.3514 145.97 45.5649C145.449 45.7784 144.878 45.8337 144.326 45.7236C143.774 45.6136 143.268 45.3432 142.87 44.9467C142.473 44.5501 142.203 44.0452 142.093 43.4956C141.984 42.9461 142.041 42.3767 142.256 41.8592C142.472 41.3418 142.837 40.8996 143.304 40.5885C143.772 40.2774 144.322 40.1113 144.885 40.1113C145.259 40.1113 145.63 40.1848 145.975 40.3276C146.321 40.4704 146.635 40.6797 146.899 40.9435C147.164 41.2073 147.373 41.5204 147.516 41.8649C147.659 42.2095 147.731 42.5786 147.731 42.9513Z" fill="white"/>
<path d="M91.4474 60.5308C93.0191 60.5308 94.2932 59.2621 94.2932 57.697C94.2932 56.132 93.0191 54.8633 91.4474 54.8633C89.8757 54.8633 88.6016 56.132 88.6016 57.697C88.6016 59.2621 89.8757 60.5308 91.4474 60.5308Z" fill="white"/>
<path d="M123.136 80.9476C121.836 80.9476 120.565 80.5637 119.484 79.8444C118.403 79.1251 117.56 78.1028 117.063 76.9066C116.565 75.7105 116.435 74.3943 116.689 73.1245C116.942 71.8547 117.569 70.6883 118.488 69.7728C119.407 68.8573 120.579 68.2338 121.854 67.9813C123.129 67.7287 124.451 67.8583 125.652 68.3538C126.853 68.8492 127.88 69.6882 128.602 70.7647C129.325 71.8412 129.71 73.1069 129.71 74.4016C129.71 76.1377 129.018 77.8027 127.785 79.0303C126.552 80.258 124.88 80.9476 123.136 80.9476ZM123.136 69.0929C122.082 69.0929 121.051 69.4043 120.175 69.9876C119.298 70.5709 118.615 71.4 118.211 72.37C117.808 73.3401 117.702 74.4074 117.908 75.4372C118.113 76.467 118.621 77.4129 119.367 78.1553C120.112 78.8977 121.062 79.4033 122.096 79.6082C123.131 79.813 124.202 79.7079 125.177 79.3061C126.151 78.9043 126.983 78.2239 127.569 77.3509C128.155 76.4779 128.468 75.4515 128.468 74.4016C128.466 72.9941 127.904 71.6448 126.904 70.6496C125.905 69.6544 124.55 69.0946 123.136 69.0929Z" fill="white"/>
<path d="M67.213 93.9409C68.7847 93.9409 70.0588 92.6722 70.0588 91.1072C70.0588 89.5422 68.7847 88.2734 67.213 88.2734C65.6413 88.2734 64.3672 89.5422 64.3672 91.1072C64.3672 92.6722 65.6413 93.9409 67.213 93.9409Z" fill="white"/>
<path d="M139.916 116.834C141.488 116.834 142.762 115.565 142.762 114C142.762 112.435 141.488 111.166 139.916 111.166C138.344 111.166 137.07 112.435 137.07 114C137.07 115.565 138.344 116.834 139.916 116.834Z" fill="white"/>
<path d="M103.875 137.153C102.574 137.155 101.301 136.771 100.218 136.052C99.1351 135.333 98.2907 134.31 97.7917 133.113C97.2927 131.916 97.1616 130.598 97.4147 129.327C97.6679 128.055 98.2941 126.887 99.2142 125.97C100.134 125.053 101.307 124.429 102.583 124.175C103.86 123.922 105.183 124.051 106.386 124.547C107.589 125.043 108.617 125.883 109.34 126.96C110.063 128.038 110.449 129.305 110.449 130.601C110.449 132.338 109.757 134.003 108.524 135.232C107.292 136.461 105.62 137.152 103.875 137.153ZM103.875 125.292C102.819 125.291 101.786 125.602 100.908 126.186C100.029 126.769 99.344 127.599 98.9393 128.571C98.5345 129.542 98.4283 130.611 98.634 131.643C98.8398 132.674 99.3483 133.622 100.095 134.365C100.842 135.109 101.794 135.615 102.829 135.82C103.865 136.025 104.939 135.919 105.915 135.516C106.89 135.113 107.724 134.431 108.31 133.556C108.896 132.681 109.208 131.653 109.207 130.601C109.205 129.194 108.643 127.844 107.643 126.849C106.644 125.854 105.289 125.294 103.875 125.292Z" fill="white"/>
<path d="M119.408 150.863C120.98 150.863 122.254 149.594 122.254 148.029C122.254 146.464 120.98 145.195 119.408 145.195C117.837 145.195 116.562 146.464 116.562 148.029C116.562 149.594 117.837 150.863 119.408 150.863Z" fill="white"/>
<path d="M70.2744 161.228C70.2756 161.79 70.1094 162.34 69.7967 162.808C69.4841 163.276 69.0391 163.641 68.5181 163.856C67.997 164.072 67.4234 164.129 66.8697 164.021C66.3161 163.912 65.8073 163.642 65.4078 163.245C65.0084 162.848 64.7361 162.342 64.6256 161.791C64.515 161.24 64.5711 160.668 64.7868 160.149C65.0025 159.63 65.368 159.186 65.8372 158.874C66.3063 158.561 66.858 158.395 67.4223 158.395C68.1772 158.396 68.9007 158.695 69.435 159.226C69.9693 159.757 70.2711 160.477 70.2744 161.228Z" fill="white"/>
<path d="M7.56551 81.6102C6.13733 81.6078 4.74191 81.184 3.55544 80.3924C2.36897 79.6007 1.44467 78.4768 0.899265 77.1625C0.353858 75.8481 0.211798 74.4023 0.491025 73.0076C0.770253 71.613 1.45825 70.3319 2.46813 69.3263C3.47801 68.3207 4.76449 67.6357 6.16511 67.3576C7.56573 67.0796 9.01768 67.221 10.3376 67.7641C11.6576 68.3072 12.7863 69.2276 13.5813 70.409C14.3763 71.5905 14.8019 72.98 14.8043 74.4021C14.806 75.3492 14.6198 76.2872 14.2566 77.1625C13.8934 78.0377 13.3603 78.833 12.6878 79.5027C12.0153 80.1723 11.2166 80.7032 10.3376 81.0649C9.45863 81.4265 8.51659 81.6119 7.56551 81.6102ZM7.56551 69.0749C6.50495 69.0749 5.4682 69.3881 4.58637 69.9748C3.70454 70.5615 3.01724 71.3954 2.61138 72.3711C2.20552 73.3468 2.09933 74.4204 2.30624 75.4562C2.51315 76.492 3.02386 77.4434 3.77379 78.1901C4.52372 78.9369 5.47919 79.4454 6.51938 79.6515C7.55957 79.8575 8.63774 79.7518 9.61757 79.3476C10.5974 78.9435 11.4349 78.2591 12.0241 77.381C12.6133 76.5029 12.9278 75.4706 12.9278 74.4145C12.9262 72.9988 12.3607 71.6417 11.3554 70.6406C10.3502 69.6396 8.98718 69.0765 7.56551 69.0749Z" fill="white"/>
</g>
</svg>
