<svg width="25" height="51" viewBox="0 0 25 51" fill="none" xmlns="http://www.w3.org/2000/svg">
    <path fill-rule="evenodd" clip-rule="evenodd" d="M8.57206 5.8C7.96618 7.48925 6.33088 8.7 4.41176 8.7C1.97647 8.7 0 6.7512 0 4.35C0 1.9488 1.97647 0 4.41176 0C6.33088 0 7.96618 1.21075 8.57206 2.9H11.7647C12.9353 2.9 14.0574 3.3582 14.8838 4.17455C15.7118 4.98945 16.1765 6.0958 16.1765 7.25V8.76235C18.8559 8.99 21.1794 9.8281 22.7147 10.9736C24.2015 12.0858 25 13.501 25 14.9829V22.7171C25 24.1991 24.2015 25.6143 22.7147 26.7264C20.9044 28.0778 17.9971 29 14.7059 29C11.4147 29 8.50735 28.0778 6.69706 26.7264C5.21029 25.6143 4.41176 24.1991 4.41176 22.7171V14.9829C4.41176 13.501 5.21029 12.0858 6.69706 10.9736C8.23235 9.8281 10.5559 8.99 13.2353 8.76235V7.25C13.2353 6.86575 13.0809 6.496 12.8044 6.22485C12.5294 5.95225 12.1544 5.8 11.7647 5.8H8.57206ZM22.0588 14.9829V22.7171C22.0588 23.3696 21.5926 23.925 20.9382 24.4151C19.5353 25.4634 17.2588 26.1 14.7059 26.1C12.1529 26.1 9.87647 25.4634 8.47353 24.4151C7.81912 23.925 7.35294 23.3696 7.35294 22.7171V14.9829C7.35294 14.3304 7.81912 13.775 8.47353 13.2849C9.87647 12.2366 12.1529 11.6 14.7059 11.6C17.2588 11.6 19.5353 12.2366 20.9382 13.2849C21.5926 13.775 22.0588 14.3304 22.0588 14.9829ZM11.7647 15.95C10.9529 15.95 10.2941 16.5996 10.2941 17.4V17.4377C10.2941 17.8118 10.4456 18.1714 10.7132 18.4368C10.9824 18.7007 11.3471 18.85 11.7265 18.85H11.8029C12.1824 18.85 12.5471 18.7007 12.8162 18.4368C13.0838 18.1714 13.2353 17.8118 13.2353 17.4377V17.4C13.2353 16.5996 12.5765 15.95 11.7647 15.95ZM17.6471 15.95C16.8353 15.95 16.1765 16.5996 16.1765 17.4V17.4377C16.1765 17.8118 16.3279 18.1714 16.5956 18.4368C16.8647 18.7007 17.2294 18.85 17.6088 18.85H17.6853C18.0647 18.85 18.4294 18.7007 18.6985 18.4368C18.9662 18.1714 19.1176 17.8118 19.1176 17.4377V17.4C19.1176 16.5996 18.4588 15.95 17.6471 15.95ZM4.41176 2.9C5.22353 2.9 5.88235 3.5496 5.88235 4.35C5.88235 5.1504 5.22353 5.8 4.41176 5.8C3.6 5.8 2.94118 5.1504 2.94118 4.35C2.94118 3.5496 3.6 2.9 4.41176 2.9Z" fill="#F22D61"/>
    <path d="M4.05 50V40.2H7.676C8.516 40.2 9.18333 40.424 9.678 40.872C10.182 41.32 10.434 41.9173 10.434 42.664C10.434 43.6253 10.0233 44.2693 9.202 44.596C8.98733 44.6893 8.754 44.7407 8.502 44.75V44.806C8.79133 44.806 9.02933 44.834 9.216 44.89C9.78533 45.0207 10.2287 45.3007 10.546 45.73C10.8633 46.15 11.022 46.668 11.022 47.284C11.022 48.1053 10.7467 48.7633 10.196 49.258C9.65467 49.7527 8.93133 50 8.026 50H4.05ZM5.492 44.33C5.576 44.2927 5.69267 44.274 5.842 44.274H7.298C7.81133 44.274 8.21267 44.1527 8.502 43.91C8.79133 43.658 8.936 43.3127 8.936 42.874C8.936 42.454 8.80533 42.132 8.544 41.908C8.28267 41.684 7.90467 41.572 7.41 41.572H5.842C5.69267 41.572 5.576 41.5533 5.492 41.516L5.464 41.544C5.492 41.6187 5.506 41.74 5.506 41.908V43.952C5.506 44.12 5.492 44.2367 5.464 44.302L5.492 44.33ZM5.492 48.684C5.576 48.6467 5.69267 48.628 5.842 48.628H7.76C8.91733 48.628 9.496 48.1427 9.496 47.172C9.496 46.136 8.85667 45.618 7.578 45.618H5.842C5.69267 45.618 5.576 45.5993 5.492 45.562L5.464 45.59C5.492 45.6553 5.506 45.772 5.506 45.94V48.292C5.506 48.46 5.492 48.5813 5.464 48.656L5.492 48.684Z" fill="#F22D61"/>
    <path d="M12.9456 44.302C13.6176 43.6487 14.4622 43.322 15.4796 43.322C16.4969 43.322 17.3416 43.6487 18.0136 44.302C18.6856 44.9553 19.0216 45.7767 19.0216 46.766C19.0216 47.7553 18.6856 48.5767 18.0136 49.23C17.3416 49.8833 16.4969 50.21 15.4796 50.21C14.4622 50.21 13.6176 49.8833 12.9456 49.23C12.2736 48.5767 11.9376 47.7553 11.9376 46.766C11.9376 45.7767 12.2736 44.9553 12.9456 44.302ZM16.9916 45.254C16.6089 44.862 16.1049 44.666 15.4796 44.666C14.8542 44.666 14.3502 44.862 13.9676 45.254C13.5849 45.6367 13.3936 46.1407 13.3936 46.766C13.3936 47.3913 13.5849 47.9 13.9676 48.292C14.3502 48.6747 14.8542 48.866 15.4796 48.866C16.1049 48.866 16.6089 48.6747 16.9916 48.292C17.3742 47.9 17.5656 47.3913 17.5656 46.766C17.5656 46.1407 17.3742 45.6367 16.9916 45.254Z" fill="#F22D61"/>
    <path d="M22.0158 40.074V42.874C22.0158 43.2007 21.9972 43.448 21.9598 43.616L22.0018 43.644C22.1045 43.5693 22.2958 43.532 22.5758 43.532H23.2198V44.848H22.5758C22.2958 44.848 22.1045 44.8107 22.0018 44.736L21.9598 44.764C21.9972 44.9227 22.0158 45.1747 22.0158 45.52V50H20.6438V45.52C20.6438 45.1747 20.6625 44.9227 20.6998 44.764L20.6578 44.736C20.5738 44.8107 20.3825 44.848 20.0838 44.848H19.5238V43.532H20.0838C20.3825 43.532 20.5738 43.5693 20.6578 43.644L20.6998 43.616C20.6625 43.448 20.6438 43.2007 20.6438 42.874V41.012L21.9318 40.074H22.0158Z" fill="#F22D61"/>
</svg>