<svg width="58" height="52" viewBox="0 0 65 52" fill="none" xmlns="http://www.w3.org/2000/svg">
<path d="M4.116 38.2C5.64667 38.2 6.86933 38.648 7.784 39.544C8.69867 40.4307 9.156 41.616 9.156 43.1C9.156 44.584 8.69867 45.774 7.784 46.67C6.86933 47.5567 5.64667 48 4.116 48H1.05V38.2H4.116ZM2.492 39.516L2.464 39.544C2.492 39.6187 2.506 39.7353 2.506 39.894V46.306C2.506 46.4647 2.492 46.5813 2.464 46.656L2.492 46.684C2.576 46.6467 2.69267 46.628 2.842 46.628H4.13C5.20333 46.628 6.04333 46.32 6.65 45.704C7.25667 45.0787 7.56 44.2107 7.56 43.1C7.56 41.9987 7.25667 41.1353 6.65 40.51C6.04333 39.8847 5.20333 39.572 4.13 39.572H2.842C2.69267 39.572 2.576 39.5533 2.492 39.516ZM13.1103 41.322C14.053 41.322 14.739 41.5367 15.1683 41.966C15.607 42.386 15.8263 43.0487 15.8263 43.954V48H14.4403C14.4403 47.608 14.5057 47.2673 14.6363 46.978L14.5803 46.95C14.095 47.79 13.3717 48.21 12.4103 48.21C11.7197 48.21 11.155 48.0047 10.7163 47.594C10.287 47.174 10.0723 46.6233 10.0723 45.942C10.0723 45.242 10.287 44.6867 10.7163 44.276C11.1457 43.8653 11.715 43.66 12.4243 43.66C13.395 43.66 14.109 44.0193 14.5663 44.738L14.6083 44.71C14.5617 44.542 14.5243 44.2433 14.4963 43.814C14.4403 43.002 13.941 42.596 12.9983 42.596C12.485 42.596 11.8643 42.7127 11.1363 42.946L10.7583 41.714C11.5517 41.4527 12.3357 41.322 13.1103 41.322ZM13.9643 45.116C13.6937 44.9013 13.3483 44.794 12.9283 44.794C12.5083 44.794 12.1677 44.9013 11.9063 45.116C11.6543 45.3307 11.5283 45.6107 11.5283 45.956C11.5283 46.3013 11.6543 46.5767 11.9063 46.782C12.1583 46.9873 12.4943 47.09 12.9143 47.09C13.3437 47.09 13.6937 46.9873 13.9643 46.782C14.2443 46.5673 14.3843 46.2873 14.3843 45.942C14.3843 45.606 14.2443 45.3307 13.9643 45.116ZM19.3029 38.074V40.874C19.3029 41.2007 19.2843 41.448 19.2469 41.616L19.2889 41.644C19.3916 41.5693 19.5829 41.532 19.8629 41.532H20.5069V42.848H19.8629C19.5829 42.848 19.3916 42.8107 19.2889 42.736L19.2469 42.764C19.2843 42.9227 19.3029 43.1747 19.3029 43.52V48H17.9309V43.52C17.9309 43.1747 17.9496 42.9227 17.9869 42.764L17.9449 42.736C17.8609 42.8107 17.6696 42.848 17.3709 42.848H16.8109V41.532H17.3709C17.6696 41.532 17.8609 41.5693 17.9449 41.644L17.9869 41.616C17.9496 41.448 17.9309 41.2007 17.9309 40.874V39.012L19.2189 38.074H19.3029ZM24.0478 41.322C24.9905 41.322 25.6765 41.5367 26.1058 41.966C26.5445 42.386 26.7638 43.0487 26.7638 43.954V48H25.3778C25.3778 47.608 25.4432 47.2673 25.5738 46.978L25.5178 46.95C25.0325 47.79 24.3092 48.21 23.3478 48.21C22.6572 48.21 22.0925 48.0047 21.6538 47.594C21.2245 47.174 21.0098 46.6233 21.0098 45.942C21.0098 45.242 21.2245 44.6867 21.6538 44.276C22.0832 43.8653 22.6525 43.66 23.3618 43.66C24.3325 43.66 25.0465 44.0193 25.5038 44.738L25.5458 44.71C25.4992 44.542 25.4618 44.2433 25.4338 43.814C25.3778 43.002 24.8785 42.596 23.9358 42.596C23.4225 42.596 22.8018 42.7127 22.0738 42.946L21.6958 41.714C22.4892 41.4527 23.2732 41.322 24.0478 41.322ZM24.9018 45.116C24.6312 44.9013 24.2858 44.794 23.8658 44.794C23.4458 44.794 23.1052 44.9013 22.8438 45.116C22.5918 45.3307 22.4658 45.6107 22.4658 45.956C22.4658 46.3013 22.5918 46.5767 22.8438 46.782C23.0958 46.9873 23.4318 47.09 23.8518 47.09C24.2812 47.09 24.6312 46.9873 24.9018 46.782C25.1818 46.5673 25.3218 46.2873 25.3218 45.942C25.3218 45.606 25.1818 45.3307 24.9018 45.116ZM34.7268 48.21C33.7468 48.21 32.8648 47.9813 32.0808 47.524L32.6968 46.306C33.4061 46.7167 34.0921 46.922 34.7548 46.922C35.4268 46.922 35.7628 46.7167 35.7628 46.306C35.7628 46.0353 35.5388 45.7927 35.0908 45.578L33.9148 45.004C33.0001 44.5653 32.5428 43.94 32.5428 43.128C32.5428 42.5587 32.7434 42.1153 33.1448 41.798C33.5461 41.4807 34.1061 41.322 34.8248 41.322C35.5528 41.322 36.3041 41.49 37.0788 41.826L36.5188 43.016C35.8468 42.736 35.2728 42.596 34.7968 42.596C34.2648 42.596 33.9988 42.764 33.9988 43.1C33.9988 43.38 34.2414 43.6367 34.7268 43.87L35.9308 44.444C36.7988 44.8547 37.2328 45.4567 37.2328 46.25C37.2328 46.866 37.0134 47.3467 36.5748 47.692C36.1361 48.0373 35.5201 48.21 34.7268 48.21ZM40.426 38.074V40.874C40.426 41.2007 40.4073 41.448 40.37 41.616L40.412 41.644C40.5147 41.5693 40.706 41.532 40.986 41.532H41.63V42.848H40.986C40.706 42.848 40.5147 42.8107 40.412 42.736L40.37 42.764C40.4073 42.9227 40.426 43.1747 40.426 43.52V48H39.054V43.52C39.054 43.1747 39.0727 42.9227 39.11 42.764L39.068 42.736C38.984 42.8107 38.7927 42.848 38.494 42.848H37.934V41.532H38.494C38.7927 41.532 38.984 41.5693 39.068 41.644L39.11 41.616C39.0727 41.448 39.054 41.2007 39.054 40.874V39.012L40.342 38.074H40.426ZM45.1709 41.322C46.1136 41.322 46.7996 41.5367 47.2289 41.966C47.6676 42.386 47.8869 43.0487 47.8869 43.954V48H46.5009C46.5009 47.608 46.5662 47.2673 46.6969 46.978L46.6409 46.95C46.1556 47.79 45.4322 48.21 44.4709 48.21C43.7802 48.21 43.2156 48.0047 42.7769 47.594C42.3476 47.174 42.1329 46.6233 42.1329 45.942C42.1329 45.242 42.3476 44.6867 42.7769 44.276C43.2062 43.8653 43.7756 43.66 44.4849 43.66C45.4556 43.66 46.1696 44.0193 46.6269 44.738L46.6689 44.71C46.6222 44.542 46.5849 44.2433 46.5569 43.814C46.5009 43.002 46.0016 42.596 45.0589 42.596C44.5456 42.596 43.9249 42.7127 43.1969 42.946L42.8189 41.714C43.6122 41.4527 44.3962 41.322 45.1709 41.322ZM46.0249 45.116C45.7542 44.9013 45.4089 44.794 44.9889 44.794C44.5689 44.794 44.2282 44.9013 43.9669 45.116C43.7149 45.3307 43.5889 45.6107 43.5889 45.956C43.5889 46.3013 43.7149 46.5767 43.9669 46.782C44.2189 46.9873 44.5549 47.09 44.9749 47.09C45.4042 47.09 45.7542 46.9873 46.0249 46.782C46.3049 46.5673 46.4449 46.2873 46.4449 45.942C46.4449 45.606 46.3049 45.3307 46.0249 45.116ZM52.2686 41.322C53.3979 41.322 54.1912 41.812 54.6486 42.792L54.7046 42.778C54.6206 42.554 54.5786 42.1387 54.5786 41.532H55.9506V47.706C55.9506 49.9087 54.7746 51.01 52.4226 51.01C51.3119 51.01 50.3599 50.7533 49.5666 50.24L50.2386 49.008C50.9479 49.4653 51.6806 49.694 52.4366 49.694C53.0712 49.694 53.5939 49.5307 54.0046 49.204C54.4152 48.8867 54.6206 48.476 54.6206 47.972V47.692C54.6206 47.2907 54.6486 46.978 54.7046 46.754L54.6486 46.74C54.1726 47.7107 53.3792 48.196 52.2686 48.196C51.3539 48.196 50.6026 47.8787 50.0146 47.244C49.4359 46.6 49.1466 45.774 49.1466 44.766C49.1466 43.758 49.4359 42.932 50.0146 42.288C50.6026 41.644 51.3539 41.322 52.2686 41.322ZM52.5346 42.61C51.9279 42.61 51.4519 42.8013 51.1066 43.184C50.7706 43.5667 50.6026 44.094 50.6026 44.766C50.6026 45.438 50.7706 45.9653 51.1066 46.348C51.4519 46.7307 51.9279 46.922 52.5346 46.922C53.1599 46.922 53.6686 46.7213 54.0606 46.32C54.4526 45.9187 54.6486 45.4007 54.6486 44.766C54.6486 44.1313 54.4526 43.6133 54.0606 43.212C53.6686 42.8107 53.1599 42.61 52.5346 42.61ZM60.503 41.322C61.4643 41.322 62.2203 41.63 62.771 42.246C63.3216 42.8527 63.597 43.6927 63.597 44.766V45.032H59.439C59.0096 45.032 58.725 44.9947 58.585 44.92L58.557 44.948L58.613 45.116C58.6876 45.6947 58.8976 46.138 59.243 46.446C59.5883 46.754 60.0456 46.908 60.615 46.908C61.3243 46.908 61.9776 46.5907 62.575 45.956L63.415 46.866C62.6683 47.762 61.7256 48.21 60.587 48.21C59.579 48.21 58.7623 47.8973 58.137 47.272C57.521 46.6467 57.213 45.8253 57.213 44.808C57.213 43.7533 57.5116 42.9087 58.109 42.274C58.7156 41.6393 59.5136 41.322 60.503 41.322ZM60.461 42.568C59.957 42.568 59.5416 42.7033 59.215 42.974C58.8883 43.2447 58.6923 43.6227 58.627 44.108L58.655 44.136C58.823 44.0427 59.089 43.996 59.453 43.996H61.091C61.6603 43.996 62.0056 44.038 62.127 44.122L62.155 44.094C62.1083 43.6087 61.9356 43.2353 61.637 42.974C61.3476 42.7033 60.9556 42.568 60.461 42.568Z" fill="#727272"/>
<g clip-path="url(#clip0_2_3744)">
<path d="M39.2499 28H28.7499C27.3003 27.9462 27.3014 25.8658 28.7499 25.8125H39.2499C40.6995 25.8663 40.6984 27.9467 39.2499 28ZM41.4374 23.625H26.5613C22.9434 23.625 20 20.6816 20 17.0637V8.09383C20 4.47528 22.9439 1.53135 26.5625 1.53135H30.1171C31.5668 1.58511 31.5657 3.66558 30.1171 3.71885H26.5625C24.1501 3.71885 22.1875 5.68146 22.1875 8.09383V17.0637C22.1875 19.4755 24.1496 21.4375 26.5613 21.4375H41.4374C43.5757 21.4375 45.3892 19.9109 45.7494 17.8076C45.8513 17.2122 46.4159 16.812 47.0121 16.9142C47.6075 17.0161 48.0074 17.5815 47.9055 18.1768C47.426 21.2504 44.5533 23.6747 41.4374 23.625V23.625ZM44.7186 15.3125H36.6249C33.8088 15.3351 32.2974 11.8968 34.1812 9.84382C33.0751 8.67187 33.0753 6.64057 34.1812 5.46884C32.2992 3.39909 33.8002 -0.0101163 36.6249 0.000110184H44.7186C47.5347 -0.022421 49.0461 3.41582 47.1623 5.46884C48.2684 6.64079 48.2682 8.67209 47.1623 9.84382C49.0443 11.9136 47.5432 15.3228 44.7186 15.3125ZM36.6249 10.9376C35.1755 10.9927 35.1766 13.0704 36.6249 13.1251H44.7186C46.168 13.0699 46.1669 10.9922 44.7186 10.9376H36.6249ZM36.6249 8.75008H44.7186C46.168 8.6949 46.1669 6.61722 44.7186 6.56258H36.6249C35.1755 6.61776 35.1766 8.69544 36.6249 8.75008ZM36.6249 4.37509H44.7186C46.168 4.31991 46.1669 2.24223 44.7186 2.1876H36.6249C35.1755 2.24278 35.1766 4.32046 36.6249 4.37509Z" fill="#727272"/>
</g>
<defs>
<clipPath id="clip0_2_3744">
<rect width="28" height="28" fill="white" transform="translate(20)"/>
</clipPath>
</defs>
</svg>
