<svg width="65" height="50" viewBox="0 0 75 56" fill="none" xmlns="http://www.w3.org/2000/svg">
    <path d="M4.116 42.2C5.64667 42.2 6.86933 42.648 7.784 43.544C8.69867 44.4307 9.156 45.616 9.156 47.1C9.156 48.584 8.69867 49.774 7.784 50.67C6.86933 51.5567 5.64667 52 4.116 52H1.05V42.2H4.116ZM2.492 43.516L2.464 43.544C2.492 43.6187 2.506 43.7353 2.506 43.894V50.306C2.506 50.4647 2.492 50.5813 2.464 50.656L2.492 50.684C2.576 50.6467 2.69267 50.628 2.842 50.628H4.13C5.20333 50.628 6.04333 50.32 6.65 49.704C7.25667 49.0787 7.56 48.2107 7.56 47.1C7.56 45.9987 7.25667 45.1353 6.65 44.51C6.04333 43.8847 5.20333 43.572 4.13 43.572H2.842C2.69267 43.572 2.576 43.5533 2.492 43.516ZM13.1103 45.322C14.053 45.322 14.739 45.5367 15.1683 45.966C15.607 46.386 15.8263 47.0487 15.8263 47.954V52H14.4403C14.4403 51.608 14.5057 51.2673 14.6363 50.978L14.5803 50.95C14.095 51.79 13.3717 52.21 12.4103 52.21C11.7197 52.21 11.155 52.0047 10.7163 51.594C10.287 51.174 10.0723 50.6233 10.0723 49.942C10.0723 49.242 10.287 48.6867 10.7163 48.276C11.1457 47.8653 11.715 47.66 12.4243 47.66C13.395 47.66 14.109 48.0193 14.5663 48.738L14.6083 48.71C14.5617 48.542 14.5243 48.2433 14.4963 47.814C14.4403 47.002 13.941 46.596 12.9983 46.596C12.485 46.596 11.8643 46.7127 11.1363 46.946L10.7583 45.714C11.5517 45.4527 12.3357 45.322 13.1103 45.322ZM13.9643 49.116C13.6937 48.9013 13.3483 48.794 12.9283 48.794C12.5083 48.794 12.1677 48.9013 11.9063 49.116C11.6543 49.3307 11.5283 49.6107 11.5283 49.956C11.5283 50.3013 11.6543 50.5767 11.9063 50.782C12.1583 50.9873 12.4943 51.09 12.9143 51.09C13.3437 51.09 13.6937 50.9873 13.9643 50.782C14.2443 50.5673 14.3843 50.2873 14.3843 49.942C14.3843 49.606 14.2443 49.3307 13.9643 49.116ZM19.3029 42.074V44.874C19.3029 45.2007 19.2843 45.448 19.2469 45.616L19.2889 45.644C19.3916 45.5693 19.5829 45.532 19.8629 45.532H20.5069V46.848H19.8629C19.5829 46.848 19.3916 46.8107 19.2889 46.736L19.2469 46.764C19.2843 46.9227 19.3029 47.1747 19.3029 47.52V52H17.9309V47.52C17.9309 47.1747 17.9496 46.9227 17.9869 46.764L17.9449 46.736C17.8609 46.8107 17.6696 46.848 17.3709 46.848H16.8109V45.532H17.3709C17.6696 45.532 17.8609 45.5693 17.9449 45.644L17.9869 45.616C17.9496 45.448 17.9309 45.2007 17.9309 44.874V43.012L19.2189 42.074H19.3029ZM24.0478 45.322C24.9905 45.322 25.6765 45.5367 26.1058 45.966C26.5445 46.386 26.7638 47.0487 26.7638 47.954V52H25.3778C25.3778 51.608 25.4432 51.2673 25.5738 50.978L25.5178 50.95C25.0325 51.79 24.3092 52.21 23.3478 52.21C22.6572 52.21 22.0925 52.0047 21.6538 51.594C21.2245 51.174 21.0098 50.6233 21.0098 49.942C21.0098 49.242 21.2245 48.6867 21.6538 48.276C22.0832 47.8653 22.6525 47.66 23.3618 47.66C24.3325 47.66 25.0465 48.0193 25.5038 48.738L25.5458 48.71C25.4992 48.542 25.4618 48.2433 25.4338 47.814C25.3778 47.002 24.8785 46.596 23.9358 46.596C23.4225 46.596 22.8018 46.7127 22.0738 46.946L21.6958 45.714C22.4892 45.4527 23.2732 45.322 24.0478 45.322ZM24.9018 49.116C24.6312 48.9013 24.2858 48.794 23.8658 48.794C23.4458 48.794 23.1052 48.9013 22.8438 49.116C22.5918 49.3307 22.4658 49.6107 22.4658 49.956C22.4658 50.3013 22.5918 50.5767 22.8438 50.782C23.0958 50.9873 23.4318 51.09 23.8518 51.09C24.2812 51.09 24.6312 50.9873 24.9018 50.782C25.1818 50.5673 25.3218 50.2873 25.3218 49.942C25.3218 49.606 25.1818 49.3307 24.9018 49.116ZM38.4088 42.2V43.572H34.6428C34.4934 43.572 34.3768 43.5533 34.2928 43.516L34.2648 43.544C34.2928 43.6187 34.3068 43.74 34.3068 43.908V45.658C34.3068 45.8167 34.2928 45.9333 34.2648 46.008L34.2928 46.036C34.3768 45.9987 34.4934 45.98 34.6428 45.98H37.9468V47.352H34.6428C34.4934 47.352 34.3768 47.3333 34.2928 47.296L34.2648 47.324C34.2928 47.3893 34.3068 47.5107 34.3068 47.688V50.292C34.3068 50.46 34.2928 50.5813 34.2648 50.656L34.2928 50.684C34.3768 50.6467 34.4934 50.628 34.6428 50.628H38.4648V52H32.8508V42.2H38.4088ZM43.5695 45.322C44.3069 45.322 44.8762 45.532 45.2775 45.952C45.6789 46.372 45.8795 46.9693 45.8795 47.744V52H44.5075V48.136C44.5075 47.6413 44.3862 47.268 44.1435 47.016C43.9102 46.7547 43.5649 46.624 43.1075 46.624C42.5289 46.624 42.0809 46.8247 41.7635 47.226C41.4555 47.618 41.3015 48.1733 41.3015 48.892V52H39.9295V45.532H41.3015C41.3015 46.1293 41.2549 46.624 41.1615 47.016L41.2175 47.03C41.6655 45.8913 42.4495 45.322 43.5695 45.322ZM49.3537 42.074V44.874C49.3537 45.2007 49.3351 45.448 49.2977 45.616L49.3397 45.644C49.4424 45.5693 49.6337 45.532 49.9137 45.532H50.5577V46.848H49.9137C49.6337 46.848 49.4424 46.8107 49.3397 46.736L49.2977 46.764C49.3351 46.9227 49.3537 47.1747 49.3537 47.52V52H47.9817V47.52C47.9817 47.1747 48.0004 46.9227 48.0377 46.764L47.9957 46.736C47.9117 46.8107 47.7204 46.848 47.4217 46.848H46.8617V45.532H47.4217C47.7204 45.532 47.9117 45.5693 47.9957 45.644L48.0377 45.616C48.0004 45.448 47.9817 45.2007 47.9817 44.874V43.012L49.2697 42.074H49.3537ZM53.2801 42.2V44.048H51.7401V42.2H53.2801ZM53.1961 45.532V52H51.8241V45.532H53.1961ZM56.9416 42.074V44.874C56.9416 45.2007 56.9229 45.448 56.8856 45.616L56.9276 45.644C57.0303 45.5693 57.2216 45.532 57.5016 45.532H58.1456V46.848H57.5016C57.2216 46.848 57.0303 46.8107 56.9276 46.736L56.8856 46.764C56.9229 46.9227 56.9416 47.1747 56.9416 47.52V52H55.5696V47.52C55.5696 47.1747 55.5883 46.9227 55.6256 46.764L55.5836 46.736C55.4996 46.8107 55.3083 46.848 55.0096 46.848H54.4496V45.532H55.0096C55.3083 45.532 55.4996 45.5693 55.5836 45.644L55.6256 45.616C55.5883 45.448 55.5696 45.2007 55.5696 44.874V43.012L56.8576 42.074H56.9416ZM60.868 42.2V44.048H59.328V42.2H60.868ZM60.784 45.532V52H59.412V45.532H60.784ZM65.3975 45.322C66.3588 45.322 67.1148 45.63 67.6655 46.246C68.2162 46.8527 68.4915 47.6927 68.4915 48.766V49.032H64.3335C63.9042 49.032 63.6195 48.9947 63.4795 48.92L63.4515 48.948L63.5075 49.116C63.5822 49.6947 63.7922 50.138 64.1375 50.446C64.4828 50.754 64.9402 50.908 65.5095 50.908C66.2188 50.908 66.8722 50.5907 67.4695 49.956L68.3095 50.866C67.5628 51.762 66.6202 52.21 65.4815 52.21C64.4735 52.21 63.6568 51.8973 63.0315 51.272C62.4155 50.6467 62.1075 49.8253 62.1075 48.808C62.1075 47.7533 62.4062 46.9087 63.0035 46.274C63.6102 45.6393 64.4082 45.322 65.3975 45.322ZM65.3555 46.568C64.8515 46.568 64.4362 46.7033 64.1095 46.974C63.7828 47.2447 63.5868 47.6227 63.5215 48.108L63.5495 48.136C63.7175 48.0427 63.9835 47.996 64.3475 47.996H65.9855C66.5548 47.996 66.9002 48.038 67.0215 48.122L67.0495 48.094C67.0028 47.6087 66.8302 47.2353 66.5315 46.974C66.2422 46.7033 65.8502 46.568 65.3555 46.568ZM71.5588 52.21C70.5788 52.21 69.6968 51.9813 68.9128 51.524L69.5288 50.306C70.2381 50.7167 70.9241 50.922 71.5868 50.922C72.2588 50.922 72.5948 50.7167 72.5948 50.306C72.5948 50.0353 72.3708 49.7927 71.9228 49.578L70.7468 49.004C69.8321 48.5653 69.3748 47.94 69.3748 47.128C69.3748 46.5587 69.5755 46.1153 69.9768 45.798C70.3781 45.4807 70.9381 45.322 71.6568 45.322C72.3848 45.322 73.1361 45.49 73.9108 45.826L73.3508 47.016C72.6788 46.736 72.1048 46.596 71.6288 46.596C71.0968 46.596 70.8308 46.764 70.8308 47.1C70.8308 47.38 71.0735 47.6367 71.5588 47.87L72.7628 48.444C73.6308 48.8547 74.0648 49.4567 74.0648 50.25C74.0648 50.866 73.8455 51.3467 73.4068 51.692C72.9681 52.0373 72.3521 52.21 71.5588 52.21Z" fill="#727272"/>
    <path d="M30.3923 12.9425C30.9955 12.9425 31.4845 13.4315 31.4845 14.0347C31.431 15.4818 29.3535 15.4814 29.3002 14.0347C29.3002 13.4315 29.7891 12.9425 30.3923 12.9425ZM29.3002 22.6081C29.3002 23.2113 29.7891 23.7003 30.3923 23.7003C31.8395 23.6467 31.8391 21.5693 30.3923 21.5159C29.7891 21.5159 29.3002 22.0049 29.3002 22.6081ZM37.6565 26.8675C37.6565 26.2643 37.1675 25.7753 36.5643 25.7753H30.3663C26.1331 25.6142 26.1363 19.5459 30.3663 19.3862H35.4176C36.8651 19.3326 36.864 17.2551 35.4176 17.2019H30.3663C26.1331 17.0408 26.1363 10.9724 30.3663 10.8128H38.0934C39.5409 10.7591 39.5398 8.68168 38.0934 8.62849H30.3663C26.1605 8.46549 26.1093 2.34417 30.3663 2.18477H44.2367C46.7276 2.15249 48.298 5.03568 46.9237 7.1081C46.5967 7.61497 46.7425 8.29091 47.2494 8.6179C47.7563 8.94489 48.4323 8.79903 48.7592 8.29222C51.0763 4.80152 48.4309 -0.0539902 44.2367 0.000453852H30.3663C25.1761 0.0172731 23.076 6.64448 27.128 9.71508C24.2965 11.7847 24.2936 16.2206 27.1207 18.294C23.0568 21.3536 25.2143 27.9495 30.3664 27.9596H36.5644C37.1675 27.9597 37.6565 27.4706 37.6565 26.8675V26.8675ZM45.1924 5.40663C45.1924 4.80343 44.7034 4.31447 44.1002 4.31447H41.5336C40.0861 4.36815 40.0872 6.4456 41.5336 6.49879H44.1002C44.7034 6.49879 45.1924 6.00977 45.1924 5.40663ZM30.3377 4.31447C30.9409 4.31447 31.4299 4.80343 31.4299 5.40663C31.3764 6.85379 29.2989 6.85341 29.2456 5.40663C29.2456 4.80343 29.7345 4.31447 30.3377 4.31447ZM52.9963 23.5926L52.9999 15.1832C53.0004 14.0159 52.5462 12.9185 51.721 12.093C50.8958 11.2675 49.7985 10.8128 48.6313 10.8128H43.0627C40.6538 10.8128 38.694 12.7726 38.694 15.1814V23.591C38.694 25.9999 40.6538 27.9597 43.0627 27.9597H48.6277C51.0357 27.9597 52.9955 26.0006 52.9963 23.5926V23.5926ZM48.6314 12.9971C49.215 12.9971 49.7636 13.2244 50.1762 13.6372C50.5888 14.05 50.8159 14.5987 50.8157 15.1823L50.8121 23.5918C50.8117 24.7958 49.8318 25.7753 48.6278 25.7753H43.0627C41.8582 25.7753 40.8784 24.7955 40.8784 23.591V15.1814C40.8784 13.977 41.8582 12.9971 43.0627 12.9971H48.6314ZM49.6156 17.748C49.6156 17.1448 49.1266 16.6558 48.5234 16.6558H47.7589C47.4578 16.6558 47.2129 16.4109 47.2129 16.1098V15.3453C47.1592 13.8977 45.0817 13.8988 45.0285 15.3453V16.1098C45.0285 17.6153 46.2534 18.8402 47.7589 18.8402H48.5234C49.1266 18.8402 49.6156 18.3511 49.6156 17.748Z" fill="#727272"/>
</svg>