<svg width="65" height="56" viewBox="0 0 72 56" fill="none" xmlns="http://www.w3.org/2000/svg">
    <path d="M38.339 28H30.3819C25.2134 27.9886 23.0618 21.3706 27.1406 18.3134C24.2994 16.228 24.3006 11.7709 27.1406 9.68658C23.0598 6.62752 25.2164 0.0104453 30.3819 0H44.2726C51.4107 0.271633 51.4053 10.5043 44.2726 10.7734H30.4093C26.1336 10.9362 26.1369 17.0653 30.4093 17.2266H34.5108C35.9605 17.2803 35.9594 19.3608 34.5108 19.4141H30.3819C26.1425 19.5754 26.1457 25.6526 30.3819 25.8125H38.339C39.7886 25.8663 39.7875 27.9467 38.339 28ZM30.4093 8.58594H44.2726C48.512 8.42455 48.5088 2.34735 44.2726 2.1875H30.3819C26.1425 2.34888 26.1457 8.42609 30.3819 8.58594H30.4093ZM30.6827 23.9531C29.9288 23.9531 29.3155 23.3398 29.3155 22.5859C29.3843 20.7747 31.9814 20.7752 32.0499 22.5859C32.0499 23.3398 31.4366 23.9531 30.6827 23.9531ZM30.6827 15.4219C29.9288 15.4219 29.3155 14.8086 29.3155 14.0547C29.3843 12.2434 31.9814 12.2439 32.0499 14.0547C32.0499 14.8086 31.4366 15.4219 30.6827 15.4219ZM44.1358 6.50781H41.5655C40.1159 6.45405 40.117 4.37358 41.5655 4.32031H44.1358C45.5854 4.37407 45.5843 6.45455 44.1358 6.50781ZM48.0733 28H42.714C41.2643 27.9462 41.2654 25.8658 42.714 25.8125H48.0733C49.5229 25.8663 49.5218 27.9467 48.0733 28ZM49.1671 24.1719H41.6202C39.5094 24.1719 37.7921 22.4546 37.7921 20.3438V16.5156C37.7921 14.4048 39.5094 12.6875 41.6202 12.6875H49.1671C51.2779 12.6875 52.9952 14.4048 52.9952 16.5156V20.3438C52.9952 22.4546 51.2779 24.1719 49.1671 24.1719ZM41.6202 14.875C40.7156 14.875 39.9796 15.611 39.9796 16.5156V20.3438C39.9796 21.2484 40.7156 21.9844 41.6202 21.9844H49.1671C50.0717 21.9844 50.8077 21.2484 50.8077 20.3438V16.5156C50.8077 15.611 50.0717 14.875 49.1671 14.875H41.6202ZM30.6827 6.78125C29.9288 6.78125 29.3155 6.16793 29.3155 5.41406C29.3843 3.60281 31.9814 3.6033 32.0499 5.41406C32.0499 6.16793 31.4366 6.78125 30.6827 6.78125Z" fill="#727272"/>
    <path d="M4.116 42.2C5.64667 42.2 6.86933 42.648 7.784 43.544C8.69867 44.4307 9.156 45.616 9.156 47.1C9.156 48.584 8.69867 49.774 7.784 50.67C6.86933 51.5567 5.64667 52 4.116 52H1.05V42.2H4.116ZM2.492 43.516L2.464 43.544C2.492 43.6187 2.506 43.7353 2.506 43.894V50.306C2.506 50.4647 2.492 50.5813 2.464 50.656L2.492 50.684C2.576 50.6467 2.69267 50.628 2.842 50.628H4.13C5.20333 50.628 6.04333 50.32 6.65 49.704C7.25667 49.0787 7.56 48.2107 7.56 47.1C7.56 45.9987 7.25667 45.1353 6.65 44.51C6.04333 43.8847 5.20333 43.572 4.13 43.572H2.842C2.69267 43.572 2.576 43.5533 2.492 43.516ZM13.1103 45.322C14.053 45.322 14.739 45.5367 15.1683 45.966C15.607 46.386 15.8263 47.0487 15.8263 47.954V52H14.4403C14.4403 51.608 14.5057 51.2673 14.6363 50.978L14.5803 50.95C14.095 51.79 13.3717 52.21 12.4103 52.21C11.7197 52.21 11.155 52.0047 10.7163 51.594C10.287 51.174 10.0723 50.6233 10.0723 49.942C10.0723 49.242 10.287 48.6867 10.7163 48.276C11.1457 47.8653 11.715 47.66 12.4243 47.66C13.395 47.66 14.109 48.0193 14.5663 48.738L14.6083 48.71C14.5617 48.542 14.5243 48.2433 14.4963 47.814C14.4403 47.002 13.941 46.596 12.9983 46.596C12.485 46.596 11.8643 46.7127 11.1363 46.946L10.7583 45.714C11.5517 45.4527 12.3357 45.322 13.1103 45.322ZM13.9643 49.116C13.6937 48.9013 13.3483 48.794 12.9283 48.794C12.5083 48.794 12.1677 48.9013 11.9063 49.116C11.6543 49.3307 11.5283 49.6107 11.5283 49.956C11.5283 50.3013 11.6543 50.5767 11.9063 50.782C12.1583 50.9873 12.4943 51.09 12.9143 51.09C13.3437 51.09 13.6937 50.9873 13.9643 50.782C14.2443 50.5673 14.3843 50.2873 14.3843 49.942C14.3843 49.606 14.2443 49.3307 13.9643 49.116ZM19.3029 42.074V44.874C19.3029 45.2007 19.2843 45.448 19.2469 45.616L19.2889 45.644C19.3916 45.5693 19.5829 45.532 19.8629 45.532H20.5069V46.848H19.8629C19.5829 46.848 19.3916 46.8107 19.2889 46.736L19.2469 46.764C19.2843 46.9227 19.3029 47.1747 19.3029 47.52V52H17.9309V47.52C17.9309 47.1747 17.9496 46.9227 17.9869 46.764L17.9449 46.736C17.8609 46.8107 17.6696 46.848 17.3709 46.848H16.8109V45.532H17.3709C17.6696 45.532 17.8609 45.5693 17.9449 45.644L17.9869 45.616C17.9496 45.448 17.9309 45.2007 17.9309 44.874V43.012L19.2189 42.074H19.3029ZM24.0478 45.322C24.9905 45.322 25.6765 45.5367 26.1058 45.966C26.5445 46.386 26.7638 47.0487 26.7638 47.954V52H25.3778C25.3778 51.608 25.4432 51.2673 25.5738 50.978L25.5178 50.95C25.0325 51.79 24.3092 52.21 23.3478 52.21C22.6572 52.21 22.0925 52.0047 21.6538 51.594C21.2245 51.174 21.0098 50.6233 21.0098 49.942C21.0098 49.242 21.2245 48.6867 21.6538 48.276C22.0832 47.8653 22.6525 47.66 23.3618 47.66C24.3325 47.66 25.0465 48.0193 25.5038 48.738L25.5458 48.71C25.4992 48.542 25.4618 48.2433 25.4338 47.814C25.3778 47.002 24.8785 46.596 23.9358 46.596C23.4225 46.596 22.8018 46.7127 22.0738 46.946L21.6958 45.714C22.4892 45.4527 23.2732 45.322 24.0478 45.322ZM24.9018 49.116C24.6312 48.9013 24.2858 48.794 23.8658 48.794C23.4458 48.794 23.1052 48.9013 22.8438 49.116C22.5918 49.3307 22.4658 49.6107 22.4658 49.956C22.4658 50.3013 22.5918 50.5767 22.8438 50.782C23.0958 50.9873 23.4318 51.09 23.8518 51.09C24.2812 51.09 24.6312 50.9873 24.9018 50.782C25.1818 50.5673 25.3218 50.2873 25.3218 49.942C25.3218 49.606 25.1818 49.3307 24.9018 49.116ZM35.4408 41.99C36.3088 41.99 37.1721 42.2093 38.0308 42.648L37.3728 44.034C36.7008 43.6513 36.0428 43.46 35.3988 43.46C34.6521 43.46 34.2788 43.74 34.2788 44.3C34.2788 44.692 34.5308 45.084 35.0348 45.476L36.7848 46.82C37.3074 47.2213 37.6901 47.6273 37.9328 48.038C38.1848 48.4487 38.3108 48.9247 38.3108 49.466C38.3108 50.3433 38.0261 51.02 37.4568 51.496C36.8874 51.972 36.1268 52.21 35.1748 52.21C34.0174 52.21 32.9628 51.9067 32.0108 51.3L32.6688 49.928C33.5928 50.46 34.4328 50.726 35.1888 50.726C35.6928 50.726 36.0754 50.6187 36.3368 50.404C36.6074 50.18 36.7428 49.8953 36.7428 49.55C36.7428 49.2887 36.6634 49.0413 36.5048 48.808C36.3461 48.5747 36.0848 48.318 35.7208 48.038L34.0548 46.722C33.1494 46.0127 32.6968 45.224 32.6968 44.356C32.6968 43.628 32.9394 43.054 33.4248 42.634C33.9101 42.2047 34.5821 41.99 35.4408 41.99ZM40.1604 46.302C40.8324 45.6487 41.6771 45.322 42.6944 45.322C43.7118 45.322 44.5564 45.6487 45.2284 46.302C45.9004 46.9553 46.2364 47.7767 46.2364 48.766C46.2364 49.7553 45.9004 50.5767 45.2284 51.23C44.5564 51.8833 43.7118 52.21 42.6944 52.21C41.6771 52.21 40.8324 51.8833 40.1604 51.23C39.4884 50.5767 39.1524 49.7553 39.1524 48.766C39.1524 47.7767 39.4884 46.9553 40.1604 46.302ZM44.2064 47.254C43.8238 46.862 43.3198 46.666 42.6944 46.666C42.0691 46.666 41.5651 46.862 41.1824 47.254C40.7998 47.6367 40.6084 48.1407 40.6084 48.766C40.6084 49.3913 40.7998 49.9 41.1824 50.292C41.5651 50.6747 42.0691 50.866 42.6944 50.866C43.3198 50.866 43.8238 50.6747 44.2064 50.292C44.5891 49.9 44.7804 49.3913 44.7804 48.766C44.7804 48.1407 44.5891 47.6367 44.2064 47.254ZM53.1581 45.532V52H51.8001C51.8001 51.5147 51.8514 51.0667 51.9541 50.656L51.8981 50.642C51.4594 51.6873 50.7174 52.21 49.6721 52.21C48.9721 52.21 48.4214 51.9767 48.0201 51.51C47.6281 51.0433 47.4321 50.3993 47.4321 49.578V45.532H48.8321V49.326C48.8321 49.8393 48.9534 50.2313 49.1961 50.502C49.4388 50.7727 49.7841 50.908 50.2321 50.908C50.7268 50.908 51.1094 50.712 51.3801 50.32C51.6508 49.928 51.7861 49.3727 51.7861 48.654V45.532H53.1581ZM58.4559 45.336C58.5492 45.336 58.6286 45.3407 58.6939 45.35V46.932C58.5259 46.9133 58.3766 46.904 58.2459 46.904C56.9392 46.904 56.2859 47.6553 56.2859 49.158V52H54.9139V45.532H56.2859C56.2859 46.064 56.2299 46.6333 56.1179 47.24L56.1879 47.254C56.5239 45.9753 57.2799 45.336 58.4559 45.336ZM62.4506 52.21C61.3959 52.21 60.5373 51.8927 59.8746 51.258C59.2213 50.614 58.8946 49.7833 58.8946 48.766C58.8946 47.7487 59.2213 46.9227 59.8746 46.288C60.5373 45.644 61.3959 45.322 62.4506 45.322C63.2626 45.322 63.9999 45.5413 64.6626 45.98L64.0186 47.142C63.5239 46.8153 62.9873 46.652 62.4086 46.652C61.8019 46.652 61.3073 46.848 60.9246 47.24C60.5419 47.632 60.3506 48.1407 60.3506 48.766C60.3506 49.3913 60.5419 49.9 60.9246 50.292C61.3073 50.684 61.8019 50.88 62.4086 50.88C62.9873 50.88 63.5239 50.7167 64.0186 50.39L64.6626 51.552C63.9999 51.9907 63.2626 52.21 62.4506 52.21ZM68.2959 45.322C69.2573 45.322 70.0133 45.63 70.5639 46.246C71.1146 46.8527 71.3899 47.6927 71.3899 48.766V49.032H67.2319C66.8026 49.032 66.5179 48.9947 66.3779 48.92L66.3499 48.948L66.4059 49.116C66.4806 49.6947 66.6906 50.138 67.0359 50.446C67.3813 50.754 67.8386 50.908 68.4079 50.908C69.1173 50.908 69.7706 50.5907 70.3679 49.956L71.2079 50.866C70.4613 51.762 69.5186 52.21 68.3799 52.21C67.3719 52.21 66.5553 51.8973 65.9299 51.272C65.3139 50.6467 65.0059 49.8253 65.0059 48.808C65.0059 47.7533 65.3046 46.9087 65.9019 46.274C66.5086 45.6393 67.3066 45.322 68.2959 45.322ZM68.2539 46.568C67.7499 46.568 67.3346 46.7033 67.0079 46.974C66.6813 47.2447 66.4853 47.6227 66.4199 48.108L66.4479 48.136C66.6159 48.0427 66.8819 47.996 67.2459 47.996H68.8839C69.4533 47.996 69.7986 48.038 69.9199 48.122L69.9479 48.094C69.9013 47.6087 69.7286 47.2353 69.4299 46.974C69.1406 46.7033 68.7486 46.568 68.2539 46.568Z" fill="#727272"/>
</svg>