<svg width="50" height="52" viewBox="0 0 55 52" fill="none" xmlns="http://www.w3.org/2000/svg">
<path d="M4.116 38.2C5.64667 38.2 6.86933 38.648 7.784 39.544C8.69867 40.4307 9.156 41.616 9.156 43.1C9.156 44.584 8.69867 45.774 7.784 46.67C6.86933 47.5567 5.64667 48 4.116 48H1.05V38.2H4.116ZM2.492 39.516L2.464 39.544C2.492 39.6187 2.506 39.7353 2.506 39.894V46.306C2.506 46.4647 2.492 46.5813 2.464 46.656L2.492 46.684C2.576 46.6467 2.69267 46.628 2.842 46.628H4.13C5.20333 46.628 6.04333 46.32 6.65 45.704C7.25667 45.0787 7.56 44.2107 7.56 43.1C7.56 41.9987 7.25667 41.1353 6.65 40.51C6.04333 39.8847 5.20333 39.572 4.13 39.572H2.842C2.69267 39.572 2.576 39.5533 2.492 39.516ZM13.1103 41.322C14.053 41.322 14.739 41.5367 15.1683 41.966C15.607 42.386 15.8263 43.0487 15.8263 43.954V48H14.4403C14.4403 47.608 14.5057 47.2673 14.6363 46.978L14.5803 46.95C14.095 47.79 13.3717 48.21 12.4103 48.21C11.7197 48.21 11.155 48.0047 10.7163 47.594C10.287 47.174 10.0723 46.6233 10.0723 45.942C10.0723 45.242 10.287 44.6867 10.7163 44.276C11.1457 43.8653 11.715 43.66 12.4243 43.66C13.395 43.66 14.109 44.0193 14.5663 44.738L14.6083 44.71C14.5617 44.542 14.5243 44.2433 14.4963 43.814C14.4403 43.002 13.941 42.596 12.9983 42.596C12.485 42.596 11.8643 42.7127 11.1363 42.946L10.7583 41.714C11.5517 41.4527 12.3357 41.322 13.1103 41.322ZM13.9643 45.116C13.6937 44.9013 13.3483 44.794 12.9283 44.794C12.5083 44.794 12.1677 44.9013 11.9063 45.116C11.6543 45.3307 11.5283 45.6107 11.5283 45.956C11.5283 46.3013 11.6543 46.5767 11.9063 46.782C12.1583 46.9873 12.4943 47.09 12.9143 47.09C13.3437 47.09 13.6937 46.9873 13.9643 46.782C14.2443 46.5673 14.3843 46.2873 14.3843 45.942C14.3843 45.606 14.2443 45.3307 13.9643 45.116ZM19.3029 38.074V40.874C19.3029 41.2007 19.2843 41.448 19.2469 41.616L19.2889 41.644C19.3916 41.5693 19.5829 41.532 19.8629 41.532H20.5069V42.848H19.8629C19.5829 42.848 19.3916 42.8107 19.2889 42.736L19.2469 42.764C19.2843 42.9227 19.3029 43.1747 19.3029 43.52V48H17.9309V43.52C17.9309 43.1747 17.9496 42.9227 17.9869 42.764L17.9449 42.736C17.8609 42.8107 17.6696 42.848 17.3709 42.848H16.8109V41.532H17.3709C17.6696 41.532 17.8609 41.5693 17.9449 41.644L17.9869 41.616C17.9496 41.448 17.9309 41.2007 17.9309 40.874V39.012L19.2189 38.074H19.3029ZM24.0478 41.322C24.9905 41.322 25.6765 41.5367 26.1058 41.966C26.5445 42.386 26.7638 43.0487 26.7638 43.954V48H25.3778C25.3778 47.608 25.4432 47.2673 25.5738 46.978L25.5178 46.95C25.0325 47.79 24.3092 48.21 23.3478 48.21C22.6572 48.21 22.0925 48.0047 21.6538 47.594C21.2245 47.174 21.0098 46.6233 21.0098 45.942C21.0098 45.242 21.2245 44.6867 21.6538 44.276C22.0832 43.8653 22.6525 43.66 23.3618 43.66C24.3325 43.66 25.0465 44.0193 25.5038 44.738L25.5458 44.71C25.4992 44.542 25.4618 44.2433 25.4338 43.814C25.3778 43.002 24.8785 42.596 23.9358 42.596C23.4225 42.596 22.8018 42.7127 22.0738 42.946L21.6958 41.714C22.4892 41.4527 23.2732 41.322 24.0478 41.322ZM24.9018 45.116C24.6312 44.9013 24.2858 44.794 23.8658 44.794C23.4458 44.794 23.1052 44.9013 22.8438 45.116C22.5918 45.3307 22.4658 45.6107 22.4658 45.956C22.4658 46.3013 22.5918 46.5767 22.8438 46.782C23.0958 46.9873 23.4318 47.09 23.8518 47.09C24.2812 47.09 24.6312 46.9873 24.9018 46.782C25.1818 46.5673 25.3218 46.2873 25.3218 45.942C25.3218 45.606 25.1818 45.3307 24.9018 45.116ZM34.7268 48.21C33.7468 48.21 32.8648 47.9813 32.0808 47.524L32.6968 46.306C33.4061 46.7167 34.0921 46.922 34.7548 46.922C35.4268 46.922 35.7628 46.7167 35.7628 46.306C35.7628 46.0353 35.5388 45.7927 35.0908 45.578L33.9148 45.004C33.0001 44.5653 32.5428 43.94 32.5428 43.128C32.5428 42.5587 32.7434 42.1153 33.1448 41.798C33.5461 41.4807 34.1061 41.322 34.8248 41.322C35.5528 41.322 36.3041 41.49 37.0788 41.826L36.5188 43.016C35.8468 42.736 35.2728 42.596 34.7968 42.596C34.2648 42.596 33.9988 42.764 33.9988 43.1C33.9988 43.38 34.2414 43.6367 34.7268 43.87L35.9308 44.444C36.7988 44.8547 37.2328 45.4567 37.2328 46.25C37.2328 46.866 37.0134 47.3467 36.5748 47.692C36.1361 48.0373 35.5201 48.21 34.7268 48.21ZM41.2256 41.322C42.187 41.322 42.943 41.63 43.4936 42.246C44.0443 42.8527 44.3196 43.6927 44.3196 44.766V45.032H40.1616C39.7323 45.032 39.4476 44.9947 39.3076 44.92L39.2796 44.948L39.3356 45.116C39.4103 45.6947 39.6203 46.138 39.9656 46.446C40.311 46.754 40.7683 46.908 41.3376 46.908C42.047 46.908 42.7003 46.5907 43.2976 45.956L44.1376 46.866C43.391 47.762 42.4483 48.21 41.3096 48.21C40.3016 48.21 39.485 47.8973 38.8596 47.272C38.2436 46.6467 37.9356 45.8253 37.9356 44.808C37.9356 43.7533 38.2343 42.9087 38.8316 42.274C39.4383 41.6393 40.2363 41.322 41.2256 41.322ZM41.1836 42.568C40.6796 42.568 40.2643 42.7033 39.9376 42.974C39.611 43.2447 39.415 43.6227 39.3496 44.108L39.3776 44.136C39.5456 44.0427 39.8116 43.996 40.1756 43.996H41.8136C42.383 43.996 42.7283 44.038 42.8496 44.122L42.8776 44.094C42.831 43.6087 42.6583 43.2353 42.3596 42.974C42.0703 42.7033 41.6783 42.568 41.1836 42.568ZM47.3029 38.074V40.874C47.3029 41.2007 47.2843 41.448 47.2469 41.616L47.2889 41.644C47.3916 41.5693 47.5829 41.532 47.8629 41.532H48.5069V42.848H47.8629C47.5829 42.848 47.3916 42.8107 47.2889 42.736L47.2469 42.764C47.2843 42.9227 47.3029 43.1747 47.3029 43.52V48H45.9309V43.52C45.9309 43.1747 45.9496 42.9227 45.9869 42.764L45.9449 42.736C45.8609 42.8107 45.6696 42.848 45.3709 42.848H44.8109V41.532H45.3709C45.6696 41.532 45.8609 41.5693 45.9449 41.644L45.9869 41.616C45.9496 41.448 45.9309 41.2007 45.9309 40.874V39.012L47.2189 38.074H47.3029ZM51.4338 48.21C50.4538 48.21 49.5718 47.9813 48.7878 47.524L49.4038 46.306C50.1131 46.7167 50.7991 46.922 51.4618 46.922C52.1338 46.922 52.4698 46.7167 52.4698 46.306C52.4698 46.0353 52.2458 45.7927 51.7978 45.578L50.6218 45.004C49.7071 44.5653 49.2498 43.94 49.2498 43.128C49.2498 42.5587 49.4505 42.1153 49.8518 41.798C50.2531 41.4807 50.8131 41.322 51.5318 41.322C52.2598 41.322 53.0111 41.49 53.7858 41.826L53.2258 43.016C52.5538 42.736 51.9798 42.596 51.5038 42.596C50.9718 42.596 50.7058 42.764 50.7058 43.1C50.7058 43.38 50.9485 43.6367 51.4338 43.87L52.6378 44.444C53.5058 44.8547 53.9398 45.4567 53.9398 46.25C53.9398 46.866 53.7205 47.3467 53.2818 47.692C52.8431 48.0373 52.2271 48.21 51.4338 48.21Z" fill="#727272"/>
<path d="M39.6974 28H18.2599C13.9117 27.8345 13.915 21.6015 18.2599 21.4375H39.6974C44.0455 21.603 44.0422 27.836 39.6974 28ZM18.2599 23.625C16.8105 23.6801 16.8116 25.7579 18.2599 25.8125H39.6974C41.1467 25.7574 41.1457 23.6796 39.6974 23.625H18.2599ZM39.6974 19.5234C39.0933 19.5234 38.6036 19.0338 38.6036 18.4297V14.7656C38.6574 13.316 40.7378 13.3171 40.7911 14.7656V18.4297C40.7911 19.0338 40.3014 19.5234 39.6974 19.5234ZM18.2599 19.5234C17.6558 19.5234 17.1661 19.0338 17.1661 18.4297V9.24219C17.1661 7.25648 18.051 5.39902 19.5938 4.14597C20.0625 3.76518 20.7515 3.83638 21.1323 4.30544C21.5132 4.77427 21.4417 5.46317 20.9729 5.84396C19.9438 6.6798 19.3536 7.91837 19.3536 9.24219V18.4297C19.3536 19.0338 18.8639 19.5234 18.2599 19.5234ZM36.9447 12.0312C36.9437 12.0312 36.9429 12.0312 36.9419 12.0312H28.7662C25.5608 12.0975 22.7358 9.27467 22.7991 6.06938C22.785 4.45791 23.4047 2.93699 24.5444 1.78631C25.6853 0.63443 27.2018 0 28.8145 0H36.9644C38.5878 0 40.1063 0.630547 41.2403 1.77554C44.9874 5.57654 42.2852 12.0304 36.9447 12.0312ZM28.8145 2.1875C26.7539 2.14309 24.9222 3.99306 24.9866 6.05347C24.9866 6.05691 24.9866 6.06047 24.9866 6.06397C24.9866 7.07355 25.3797 8.02271 26.0936 8.7366C26.8074 9.4506 27.7566 9.84375 28.7662 9.84375H36.9424H36.9441C40.3251 9.86338 42.0742 5.69177 39.6861 3.31488C38.966 2.58787 37.9995 2.1875 36.9644 2.1875H28.8145ZM37.2378 7.38281C36.4839 7.38281 35.8706 6.76949 35.8706 6.01562C35.9393 4.20438 38.5365 4.20487 38.605 6.01562C38.605 6.76949 37.9917 7.38281 37.2378 7.38281ZM32.8628 7.38281C32.1089 7.38281 31.4956 6.76949 31.4956 6.01562C31.5643 4.20438 34.1615 4.20487 34.23 6.01562C34.23 6.76949 33.6167 7.38281 32.8628 7.38281ZM28.4878 7.38281C27.7339 7.38281 27.1206 6.76949 27.1206 6.01562C27.1893 4.20438 29.7865 4.20487 29.855 6.01562C29.855 6.76949 29.2417 7.38281 28.4878 7.38281Z" fill="#727272"/>
</svg>
