<svg width="36" height="54" viewBox="0 0 36 54" fill="none" xmlns="http://www.w3.org/2000/svg">
<path d="M6.09 50.098L3.822 44.946C3.56067 44.3487 3.40667 43.826 3.36 43.378H3.304C3.304 43.966 3.234 44.4933 3.094 44.96L1.652 50H0.14L3.052 40.06H3.262L5.894 46.22C6.006 46.4907 6.08533 46.8687 6.132 47.354H6.188C6.23467 46.8687 6.314 46.4907 6.426 46.22L9.058 40.06H9.268L12.18 50H10.668L9.226 44.96C9.086 44.4933 9.016 43.966 9.016 43.378H8.96C8.91333 43.826 8.75933 44.3487 8.498 44.946L6.23 50.098H6.09ZM14.6844 40.2V42.048H13.1444V40.2H14.6844ZM14.6004 43.532V50H13.2284V43.532H14.6004ZM20.0539 43.322C20.7912 43.322 21.3606 43.532 21.7619 43.952C22.1632 44.372 22.3639 44.9693 22.3639 45.744V50H20.9919V46.136C20.9919 45.6413 20.8706 45.268 20.6279 45.016C20.3946 44.7547 20.0492 44.624 19.5919 44.624C19.0132 44.624 18.5652 44.8247 18.2479 45.226C17.9399 45.618 17.7859 46.1733 17.7859 46.892V50H16.4139V43.532H17.7859C17.7859 44.1293 17.7392 44.624 17.6459 45.016L17.7019 45.03C18.1499 43.8913 18.9339 43.322 20.0539 43.322ZM26.9112 43.322C27.8725 43.322 28.6285 43.63 29.1792 44.246C29.7298 44.8527 30.0052 45.6927 30.0052 46.766V47.032H25.8472C25.4178 47.032 25.1332 46.9947 24.9932 46.92L24.9652 46.948L25.0212 47.116C25.0958 47.6947 25.3058 48.138 25.6512 48.446C25.9965 48.754 26.4538 48.908 27.0232 48.908C27.7325 48.908 28.3858 48.5907 28.9832 47.956L29.8232 48.866C29.0765 49.762 28.1338 50.21 26.9952 50.21C25.9872 50.21 25.1705 49.8973 24.5452 49.272C23.9292 48.6467 23.6212 47.8253 23.6212 46.808C23.6212 45.7533 23.9198 44.9087 24.5172 44.274C25.1238 43.6393 25.9218 43.322 26.9112 43.322ZM26.8692 44.568C26.3652 44.568 25.9498 44.7033 25.6232 44.974C25.2965 45.2447 25.1005 45.6227 25.0352 46.108L25.0632 46.136C25.2312 46.0427 25.4972 45.996 25.8612 45.996H27.4992C28.0685 45.996 28.4138 46.038 28.5352 46.122L28.5632 46.094C28.5165 45.6087 28.3438 45.2353 28.0452 44.974C27.7558 44.7033 27.3638 44.568 26.8692 44.568ZM34.8719 43.336C34.9653 43.336 35.0446 43.3407 35.1099 43.35V44.932C34.9419 44.9133 34.7926 44.904 34.6619 44.904C33.3553 44.904 32.7019 45.6553 32.7019 47.158V50H31.3299V43.532H32.7019C32.7019 44.064 32.6459 44.6333 32.5339 45.24L32.6039 45.254C32.9399 43.9753 33.6959 43.336 34.8719 43.336Z" fill="#727272"/>
<path fill-rule="evenodd" clip-rule="evenodd" d="M31.2822 11.8543L24.9401 5.5125L29.0433 1.40953C29.2715 1.18132 29.3447 0.840452 29.2303 0.538687C29.1158 0.236868 28.835 0.0302588 28.5129 0.0106807C26.5274 -0.109413 24.1276 0.787569 21.8693 2.4826C21.559 2.29656 21.1324 2.35201 20.8796 2.61227L18.5594 4.93249C18.2911 5.20078 18.2484 5.60826 18.4295 5.92195C16.7333 8.18043 15.837 10.5756 15.9577 12.5654C15.9761 12.8689 16.1606 13.1355 16.4341 13.2611H6.46103C5.10402 13.2611 4 14.3651 4 15.722V19.0033C4 19.6268 4.23352 20.1965 4.61712 20.6306C4.23352 21.0646 4 21.6343 4 22.2578V25.5391C4 26.896 5.10402 28 6.46103 28H17.6724C19.0294 28 20.1334 26.896 20.1334 25.5391V22.2578C20.1334 21.6343 19.8999 21.0646 19.5163 20.6305C19.8999 20.1964 20.1334 19.6267 20.1334 19.0032V15.7219C20.1334 14.365 19.0294 13.261 17.6724 13.261H17.1169C17.2044 13.221 17.286 13.1662 17.3565 13.0957L21.4596 8.99275L27.8017 15.3346C28.2652 15.7982 28.8832 16.0534 29.5419 16.0534C31.7118 16.0732 32.8255 13.3777 31.2822 11.8543ZM18.4927 25.5391C18.4927 25.9914 18.1247 26.3594 17.6724 26.3594H6.46103C6.00869 26.3594 5.64068 25.9914 5.64068 25.5391V22.2578C5.64068 21.8661 5.91692 21.538 6.28471 21.4571C6.34301 21.4612 6.40169 21.4641 6.46103 21.4641H17.6724C17.7317 21.4641 17.7904 21.4612 17.8487 21.4571C18.2165 21.538 18.4927 21.8661 18.4927 22.2578V25.5391ZM18.4927 15.7219V19.0032C18.4927 19.3949 18.2165 19.723 17.8487 19.8039C17.7904 19.7997 17.7317 19.7969 17.6724 19.7969H6.46103C6.40169 19.7969 6.34301 19.7997 6.28471 19.8039C5.91692 19.723 5.64068 19.3949 5.64068 19.0032V15.7219C5.64068 15.2696 6.00869 14.9016 6.46103 14.9016H17.6724C18.1247 14.9016 18.4927 15.2696 18.4927 15.7219ZM23.78 4.35236L23.0666 3.63897C24.0836 2.90495 25.1294 2.35146 26.1169 2.01552L23.78 4.35236ZM21.4597 4.35236L22.6198 5.51245L21.4597 6.67253L20.2995 5.51245L21.4597 4.35236ZM19.5859 7.11905L20.2995 7.83267L17.9612 10.1709C18.2969 9.18312 18.8505 8.13739 19.5859 7.11905ZM30.122 14.1745C29.8198 14.4901 29.2641 14.4902 28.9619 14.1745L22.6198 7.83272C22.9089 7.54359 23.4908 6.96172 23.7799 6.67264L30.122 13.0145C30.4419 13.3343 30.4419 13.8547 30.122 14.1745Z" fill="#727272"/>
<path fill-rule="evenodd" clip-rule="evenodd" d="M12.9168 23.0781H8.10416C7.01846 23.1177 7.01627 24.6782 8.10416 24.7188H12.9168C13.3699 24.7188 13.7372 24.3515 13.7372 23.8984C13.7372 23.4454 13.3699 23.0781 12.9168 23.0781Z" fill="#727272"/>
<path fill-rule="evenodd" clip-rule="evenodd" d="M16.0313 23.0781C15.5794 23.0781 15.2109 23.4466 15.2109 23.8984C15.2529 24.985 16.8098 24.9848 16.8516 23.8984C16.8516 23.4466 16.4831 23.0781 16.0313 23.0781Z" fill="#727272"/>
<path fill-rule="evenodd" clip-rule="evenodd" d="M8.1016 18.1836H12.9143C14 18.144 14.0022 16.5835 12.9143 16.543H8.1016C7.64855 16.543 7.28125 16.9103 7.28125 17.3633C7.28125 17.8163 7.64855 18.1836 8.1016 18.1836Z" fill="#727272"/>
<path fill-rule="evenodd" clip-rule="evenodd" d="M16.0313 18.183C16.4831 18.183 16.8516 17.8145 16.8516 17.3627C16.8097 16.2761 15.2528 16.2764 15.2109 17.3627C15.2109 17.8145 15.5794 18.183 16.0313 18.183Z" fill="#727272"/>
</svg>
