<svg width="55" height="53" viewBox="0 0 61 53" fill="none" xmlns="http://www.w3.org/2000/svg">
    <path d="M4.2 39.2C5.16133 39.2 5.91733 39.4473 6.468 39.942C7.01867 40.4367 7.294 41.118 7.294 41.986C7.294 42.8447 7.02333 43.5213 6.482 44.016C5.95 44.5107 5.23133 44.758 4.326 44.758H2.842C2.69267 44.758 2.576 44.7393 2.492 44.702L2.464 44.73C2.492 44.7953 2.506 44.912 2.506 45.08V49H1.05V39.2H4.2ZM2.492 40.516L2.464 40.544C2.492 40.6187 2.506 40.74 2.506 40.908V43.05C2.506 43.218 2.492 43.3393 2.464 43.414L2.492 43.442C2.576 43.4047 2.69267 43.386 2.842 43.386H4.214C4.69933 43.386 5.07267 43.2647 5.334 43.022C5.59533 42.77 5.726 42.4247 5.726 41.986C5.726 41.5473 5.59533 41.202 5.334 40.95C5.07267 40.698 4.69933 40.572 4.214 40.572H2.842C2.69267 40.572 2.576 40.5533 2.492 40.516ZM10.54 42.322C11.4827 42.322 12.1687 42.5367 12.598 42.966C13.0367 43.386 13.256 44.0487 13.256 44.954V49H11.87C11.87 48.608 11.9354 48.2673 12.066 47.978L12.01 47.95C11.5247 48.79 10.8014 49.21 9.84003 49.21C9.14936 49.21 8.5847 49.0047 8.14603 48.594C7.7167 48.174 7.50203 47.6233 7.50203 46.942C7.50203 46.242 7.7167 45.6867 8.14603 45.276C8.57536 44.8653 9.1447 44.66 9.85403 44.66C10.8247 44.66 11.5387 45.0193 11.996 45.738L12.038 45.71C11.9914 45.542 11.954 45.2433 11.926 44.814C11.87 44.002 11.3707 43.596 10.428 43.596C9.9147 43.596 9.29403 43.7127 8.56603 43.946L8.18803 42.714C8.98136 42.4527 9.76536 42.322 10.54 42.322ZM11.394 46.116C11.1234 45.9013 10.778 45.794 10.358 45.794C9.93803 45.794 9.59736 45.9013 9.33603 46.116C9.08403 46.3307 8.95803 46.6107 8.95803 46.956C8.95803 47.3013 9.08403 47.5767 9.33603 47.782C9.58803 47.9873 9.92403 48.09 10.344 48.09C10.7734 48.09 11.1234 47.9873 11.394 47.782C11.674 47.5673 11.814 47.2873 11.814 46.942C11.814 46.606 11.674 46.3307 11.394 46.116ZM18.5477 42.336C18.641 42.336 18.7204 42.3407 18.7857 42.35V43.932C18.6177 43.9133 18.4684 43.904 18.3377 43.904C17.031 43.904 16.3777 44.6553 16.3777 46.158V49H15.0057V42.532H16.3777C16.3777 43.064 16.3217 43.6333 16.2097 44.24L16.2797 44.254C16.6157 42.9753 17.3717 42.336 18.5477 42.336ZM22.0244 42.322C22.9671 42.322 23.6531 42.5367 24.0824 42.966C24.5211 43.386 24.7404 44.0487 24.7404 44.954V49H23.3544C23.3544 48.608 23.4197 48.2673 23.5504 47.978L23.4944 47.95C23.0091 48.79 22.2857 49.21 21.3244 49.21C20.6337 49.21 20.0691 49.0047 19.6304 48.594C19.2011 48.174 18.9864 47.6233 18.9864 46.942C18.9864 46.242 19.2011 45.6867 19.6304 45.276C20.0597 44.8653 20.6291 44.66 21.3384 44.66C22.3091 44.66 23.0231 45.0193 23.4804 45.738L23.5224 45.71C23.4757 45.542 23.4384 45.2433 23.4104 44.814C23.3544 44.002 22.8551 43.596 21.9124 43.596C21.3991 43.596 20.7784 43.7127 20.0504 43.946L19.6724 42.714C20.4657 42.4527 21.2497 42.322 22.0244 42.322ZM22.8784 46.116C22.6077 45.9013 22.2624 45.794 21.8424 45.794C21.4224 45.794 21.0817 45.9013 20.8204 46.116C20.5684 46.3307 20.4424 46.6107 20.4424 46.956C20.4424 47.3013 20.5684 47.5767 20.8204 47.782C21.0724 47.9873 21.4084 48.09 21.8284 48.09C22.2577 48.09 22.6077 47.9873 22.8784 47.782C23.1584 47.5673 23.2984 47.2873 23.2984 46.942C23.2984 46.606 23.1584 46.3307 22.8784 46.116ZM26.4901 49V42.532H27.8621C27.8621 43.0173 27.8107 43.4793 27.7081 43.918L27.7641 43.946C28.1281 42.8633 28.8327 42.322 29.8781 42.322C30.9234 42.322 31.5674 42.84 31.8101 43.876H31.8661C31.9967 43.3907 32.2487 43.0127 32.6221 42.742C32.9954 42.462 33.4481 42.322 33.9801 42.322C34.6521 42.322 35.1701 42.5367 35.5341 42.966C35.8981 43.386 36.0801 43.988 36.0801 44.772V49H34.7081V45.22C34.7081 44.6693 34.6007 44.268 34.3861 44.016C34.1807 43.7547 33.8541 43.624 33.4061 43.624C32.4354 43.624 31.9501 44.3333 31.9501 45.752V49H30.6201V45.22C30.6201 44.6693 30.5127 44.268 30.2981 44.016C30.0927 43.7547 29.7661 43.624 29.3181 43.624C28.3474 43.624 27.8621 44.3333 27.8621 45.752V49H26.4901ZM40.6241 42.322C41.5854 42.322 42.3414 42.63 42.8921 43.246C43.4427 43.8527 43.7181 44.6927 43.7181 45.766V46.032H39.5601C39.1307 46.032 38.8461 45.9947 38.7061 45.92L38.6781 45.948L38.7341 46.116C38.8087 46.6947 39.0187 47.138 39.3641 47.446C39.7094 47.754 40.1667 47.908 40.7361 47.908C41.4454 47.908 42.0987 47.5907 42.6961 46.956L43.5361 47.866C42.7894 48.762 41.8467 49.21 40.7081 49.21C39.7001 49.21 38.8834 48.8973 38.2581 48.272C37.6421 47.6467 37.3341 46.8253 37.3341 45.808C37.3341 44.7533 37.6327 43.9087 38.2301 43.274C38.8367 42.6393 39.6347 42.322 40.6241 42.322ZM40.5821 43.568C40.0781 43.568 39.6627 43.7033 39.3361 43.974C39.0094 44.2447 38.8134 44.6227 38.7481 45.108L38.7761 45.136C38.9441 45.0427 39.2101 44.996 39.5741 44.996H41.2121C41.7814 44.996 42.1267 45.038 42.2481 45.122L42.2761 45.094C42.2294 44.6087 42.0567 44.2353 41.7581 43.974C41.4687 43.7033 41.0767 43.568 40.5821 43.568ZM46.7014 39.074V41.874C46.7014 42.2007 46.6827 42.448 46.6454 42.616L46.6874 42.644C46.79 42.5693 46.9814 42.532 47.2614 42.532H47.9054V43.848H47.2614C46.9814 43.848 46.79 43.8107 46.6874 43.736L46.6454 43.764C46.6827 43.9227 46.7014 44.1747 46.7014 44.52V49H45.3294V44.52C45.3294 44.1747 45.348 43.9227 45.3854 43.764L45.3434 43.736C45.2594 43.8107 45.068 43.848 44.7694 43.848H44.2094V42.532H44.7694C45.068 42.532 45.2594 42.5693 45.3434 42.644L45.3854 42.616C45.348 42.448 45.3294 42.2007 45.3294 41.874V40.012L46.6174 39.074H46.7014ZM51.6983 42.322C52.6596 42.322 53.4156 42.63 53.9663 43.246C54.5169 43.8527 54.7923 44.6927 54.7923 45.766V46.032H50.6343C50.2049 46.032 49.9203 45.9947 49.7803 45.92L49.7523 45.948L49.8083 46.116C49.8829 46.6947 50.0929 47.138 50.4383 47.446C50.7836 47.754 51.2409 47.908 51.8103 47.908C52.5196 47.908 53.1729 47.5907 53.7703 46.956L54.6103 47.866C53.8636 48.762 52.9209 49.21 51.7823 49.21C50.7743 49.21 49.9576 48.8973 49.3323 48.272C48.7163 47.6467 48.4083 46.8253 48.4083 45.808C48.4083 44.7533 48.7069 43.9087 49.3043 43.274C49.9109 42.6393 50.7089 42.322 51.6983 42.322ZM51.6563 43.568C51.1523 43.568 50.7369 43.7033 50.4103 43.974C50.0836 44.2447 49.8876 44.6227 49.8223 45.108L49.8503 45.136C50.0183 45.0427 50.2843 44.996 50.6483 44.996H52.2863C52.8556 44.996 53.2009 45.038 53.3223 45.122L53.3503 45.094C53.3036 44.6087 53.1309 44.2353 52.8323 43.974C52.5429 43.7033 52.1509 43.568 51.6563 43.568ZM59.659 42.336C59.7524 42.336 59.8317 42.3407 59.897 42.35V43.932C59.729 43.9133 59.5797 43.904 59.449 43.904C58.1424 43.904 57.489 44.6553 57.489 46.158V49H56.117V42.532H57.489C57.489 43.064 57.433 43.6333 57.321 44.24L57.391 44.254C57.727 42.9753 58.483 42.336 59.659 42.336Z" fill="#727272"/>
    <path d="M29 28C25.2996 27.9295 24.4824 22.8914 27.9062 21.6249V18.3203C27.96 16.8707 30.0404 16.8717 30.0937 18.3203V21.6249C33.5197 22.8931 32.6976 27.9304 29 28ZM29 23.625C28.3969 23.625 27.9062 24.1157 27.9062 24.7188C27.9612 26.1677 30.0389 26.1674 30.0937 24.7188C30.0937 24.1157 29.603 23.625 29 23.625ZM39.7187 28C36.0509 27.9331 35.1991 22.957 38.5703 21.6449V20.5078C38.5703 19.9047 38.0796 19.4141 37.4765 19.4141H33.3203C31.8706 19.3603 31.8717 17.2798 33.3203 17.2266H37.4765C39.2858 17.2266 40.7578 18.6985 40.7578 20.5078V21.6061C44.2358 22.8278 43.4488 27.9268 39.7187 28ZM39.7187 23.625C39.1156 23.625 38.625 24.1157 38.625 24.7188C38.68 26.1677 40.7577 26.1674 40.8125 24.7188C40.8125 24.1157 40.3218 23.625 39.7187 23.625ZM18.2812 28C14.5484 27.9258 13.7663 22.8261 17.2421 21.6061V20.5078C17.2421 18.6985 18.7141 17.2266 20.5234 17.2266H24.6796C26.1293 17.2803 26.1282 19.3608 24.6796 19.4141H20.5234C19.9203 19.4141 19.4296 19.9047 19.4296 20.5078V21.6449C22.8029 22.9586 21.9464 27.934 18.2812 28ZM18.2812 23.625C17.6781 23.625 17.1875 24.1157 17.1875 24.7188C17.2425 26.1677 19.3202 26.1674 19.375 24.7188C19.375 24.1157 18.8843 23.625 18.2812 23.625ZM31.6796 15.3125H26.3203C24.8706 15.2587 24.8717 13.1783 26.3203 13.125H31.6796C33.1293 13.1788 33.1282 15.2592 31.6796 15.3125ZM32.7734 11.4844H25.2265C23.1157 11.4844 21.3984 9.76708 21.3984 7.65625V3.82812C21.3984 1.7173 23.1157 0 25.2265 0H32.7734C34.8842 0 36.6015 1.7173 36.6015 3.82812V7.65625C36.6015 9.76708 34.8843 11.4844 32.7734 11.4844ZM25.2265 2.1875C24.3219 2.1875 23.5859 2.92348 23.5859 3.82812V7.65625C23.5859 8.56089 24.3219 9.29688 25.2265 9.29688H32.7734C33.678 9.29688 34.414 8.56089 34.414 7.65625V3.82812C34.414 2.92348 33.678 2.1875 32.7734 2.1875H25.2265Z" fill="#727272"/>
</svg>