<svg width="175" height="130" viewBox="0 0 197 138" fill="none" xmlns="http://www.w3.org/2000/svg">
<rect x="9" y="13.6982" width="179.375" height="119.302" rx="4.40184" fill="#FFE9EF"/>
<path d="M40.0881 36.2854C38.7278 36.2854 37.398 35.8824 36.2669 35.1273C35.1359 34.3721 34.2543 33.2988 33.7338 32.0431C33.2132 30.7874 33.077 29.4056 33.3424 28.0725C33.6077 26.7394 34.2628 25.5149 35.2247 24.5538C36.1866 23.5927 37.4121 22.9382 38.7463 22.6731C40.0805 22.4079 41.4634 22.544 42.7201 23.0641C43.9769 23.5843 45.0511 24.4651 45.8068 25.5952C46.5626 26.7254 46.966 28.054 46.966 29.4132C46.9639 31.2352 46.2386 32.982 44.9492 34.2703C43.6598 35.5587 41.9116 36.2834 40.0881 36.2854ZM40.0881 24.1903C39.0542 24.1903 38.0436 24.4967 37.184 25.0706C36.3244 25.6445 35.6544 26.4602 35.2588 27.4145C34.8632 28.3689 34.7596 29.419 34.9613 30.4322C35.163 31.4453 35.6609 32.3759 36.3919 33.1064C37.1229 33.8368 38.0543 34.3342 39.0683 34.5358C40.0823 34.7373 41.1333 34.6338 42.0884 34.2385C43.0436 33.8432 43.86 33.1738 44.4343 32.3149C45.0087 31.456 45.3153 30.4462 45.3153 29.4132C45.3137 28.0285 44.7625 26.701 43.7825 25.7218C42.8026 24.7427 41.4739 24.1919 40.0881 24.1903Z" fill="#3F3D56"/>
<path d="M156.187 36.2854C154.827 36.2854 153.497 35.8824 152.366 35.1273C151.235 34.3721 150.353 33.2988 149.833 32.0431C149.312 30.7874 149.176 29.4056 149.441 28.0725C149.707 26.7394 150.362 25.5149 151.323 24.5538C152.285 23.5927 153.511 22.9382 154.845 22.6731C156.179 22.4079 157.562 22.544 158.819 23.0641C160.076 23.5843 161.15 24.4651 161.906 25.5952C162.661 26.7254 163.065 28.054 163.065 29.4132C163.063 31.2352 162.337 32.982 161.048 34.2703C159.759 35.5587 158.01 36.2834 156.187 36.2854ZM156.187 24.1903C155.153 24.1903 154.142 24.4967 153.283 25.0706C152.423 25.6445 151.753 26.4602 151.358 27.4145C150.962 28.3689 150.858 29.419 151.06 30.4322C151.262 31.4453 151.76 32.3759 152.491 33.1064C153.222 33.8368 154.153 34.3342 155.167 34.5358C156.181 34.7373 157.232 34.6338 158.187 34.2385C159.142 33.8432 159.959 33.1738 160.533 32.3149C161.107 31.456 161.414 30.4462 161.414 29.4132C161.412 28.0285 160.861 26.701 159.881 25.7218C158.901 24.7427 157.573 24.1919 156.187 24.1903Z" fill="#3F3D56"/>
<g filter="url(#filter0_d_2_5414)">
<path d="M56.3203 78.068H26.6079C25.3679 78.0665 24.1792 77.5737 23.3024 76.6976C22.4256 75.8216 21.9324 74.6338 21.9309 73.3949V55.802C21.9324 54.5631 22.4256 53.3753 23.3024 52.4993C24.1792 51.6232 25.3679 51.1304 26.6079 51.1289H56.3203C57.5602 51.1304 58.749 51.6232 59.6258 52.4993C60.5025 53.3753 60.9958 54.5631 60.9972 55.802V73.3949C60.9958 74.6338 60.5025 75.8216 59.6258 76.6976C58.749 77.5737 57.5602 78.0665 56.3203 78.068Z" fill="white"/>
</g>
<g filter="url(#filter1_d_2_5414)">
<path d="M113.545 78.068H83.8328C82.5929 78.0665 81.4041 77.5737 80.5274 76.6976C79.6506 75.8216 79.1574 74.6338 79.1559 73.3949V55.802C79.1574 54.5631 79.6506 53.3753 80.5274 52.4993C81.4041 51.6232 82.5929 51.1304 83.8328 51.1289H113.545C114.785 51.1304 115.974 51.6232 116.851 52.4993C117.728 53.3753 118.221 54.5631 118.222 55.802V73.3949C118.221 74.6338 117.728 75.8216 116.851 76.6976C115.974 77.5737 114.785 78.0665 113.545 78.068Z" fill="white"/>
</g>
<g filter="url(#filter2_d_2_5414)">
<path d="M141.054 51.6787C139.96 51.6799 138.911 52.1147 138.138 52.8877C137.364 53.6607 136.929 54.7088 136.928 55.802V73.3949C136.929 74.4881 137.364 75.5362 138.138 76.3092C138.911 77.0822 139.96 77.517 141.054 77.5182H170.767C171.861 77.517 172.91 77.0822 173.684 76.3092C174.457 75.5362 174.892 74.4881 174.894 73.3949V55.802C174.892 54.7088 174.457 53.6607 173.684 52.8877C172.91 52.1147 171.861 51.6799 170.767 51.6787H141.054Z" fill="white"/>
</g>
<g filter="url(#filter3_d_2_5414)">
<path d="M56.5937 113.254H26.8813C25.6413 113.253 24.4526 112.76 23.5758 111.884C22.699 111.008 22.2058 109.82 22.2043 108.581V90.9885C22.2058 89.7496 22.699 88.5618 23.5758 87.6858C24.4526 86.8097 25.6413 86.3169 26.8813 86.3154H56.5937C57.8337 86.3169 59.0224 86.8097 59.8992 87.6858C60.776 88.5618 61.2692 89.7496 61.2707 90.9885V108.581C61.2692 109.82 60.776 111.008 59.8992 111.884C59.0224 112.76 57.8337 113.253 56.5937 113.254Z" fill="white"/>
</g>
<path d="M113.819 113.208H84.1063C82.8663 113.206 81.6776 112.713 80.8008 111.837C79.924 110.961 79.4308 109.773 79.4293 108.535V90.9417C79.4308 89.7027 79.924 88.515 80.8008 87.6389C81.6776 86.7628 82.8663 86.27 84.1063 86.2686H113.819C115.059 86.27 116.247 86.7628 117.124 87.6389C118.001 88.515 118.494 89.7027 118.496 90.9417V108.535C118.494 109.773 118.001 110.961 117.124 111.837C116.247 112.713 115.059 113.206 113.819 113.208Z" fill="white"/>
<g filter="url(#filter4_d_2_5414)">
<path d="M171.044 113.254H141.331C140.091 113.253 138.903 112.76 138.026 111.884C137.149 111.008 136.656 109.82 136.654 108.581V90.9885C136.656 89.7496 137.149 88.5618 138.026 87.6858C138.903 86.8097 140.091 86.3169 141.331 86.3154H171.044C172.284 86.3169 173.472 86.8097 174.349 87.6858C175.226 88.5618 175.719 89.7496 175.721 90.9885V108.581C175.719 109.82 175.226 111.008 174.349 111.884C173.472 112.76 172.284 113.253 171.044 113.254Z" fill="white"/>
</g>
<path d="M40.0879 31.3373C39.5773 31.3367 39.0879 31.1337 38.7268 30.773C38.3658 30.4123 38.1627 29.9232 38.1621 29.4131V1.92422C38.1621 1.41388 38.365 0.924446 38.7262 0.563585C39.0873 0.202724 39.5772 0 40.0879 0C40.5987 0 41.0885 0.202724 41.4497 0.563585C41.8108 0.924446 42.0137 1.41388 42.0137 1.92422V29.4131C42.0131 29.9232 41.81 30.4123 41.449 30.773C41.088 31.1337 40.5985 31.3367 40.0879 31.3373Z" fill="#3F3D56"/>
<path d="M156.187 31.3373C155.676 31.3367 155.187 31.1337 154.826 30.773C154.465 30.4123 154.262 29.9232 154.261 29.4131V1.92422C154.261 1.41388 154.464 0.924446 154.825 0.563585C155.186 0.202724 155.676 0 156.187 0C156.698 0 157.187 0.202724 157.549 0.563585C157.91 0.924446 158.113 1.41388 158.113 1.92422V29.4131C158.112 29.9232 157.909 30.4123 157.548 30.773C157.187 31.1337 156.697 31.3367 156.187 31.3373Z" fill="#3F3D56"/>
<path d="M96.5174 110.03C95.8953 110.031 95.2898 109.83 94.7921 109.457L94.7612 109.434L88.2629 104.467C87.6551 104.002 87.2573 103.314 87.157 102.555C87.0567 101.796 87.2621 101.029 87.7281 100.422C88.1941 99.8143 88.8824 99.4168 89.6417 99.3166C90.401 99.2164 91.1691 99.4217 91.7769 99.8873L95.986 103.112L105.932 90.147C106.163 89.8464 106.451 89.5941 106.779 89.4046C107.107 89.2151 107.469 89.092 107.845 89.0424C108.221 88.9928 108.603 89.0177 108.969 89.1155C109.335 89.2134 109.679 89.3824 109.979 89.6128L109.98 89.6135L109.919 89.6991L109.982 89.6135C110.589 90.0796 110.986 90.7672 111.086 91.5255C111.186 92.2837 110.981 93.0507 110.516 93.6581L98.8168 108.901C98.5462 109.253 98.1982 109.537 97.7998 109.732C97.4015 109.927 96.9635 110.028 96.5199 110.027L96.5174 110.03Z" fill="#F22D61"/>
<defs>
<filter id="filter0_d_2_5414" x="0.930908" y="33.6289" width="81.0663" height="68.9395" filterUnits="userSpaceOnUse" color-interpolation-filters="sRGB">
<feFlood flood-opacity="0" result="BackgroundImageFix"/>
<feColorMatrix in="SourceAlpha" type="matrix" values="0 0 0 0 0 0 0 0 0 0 0 0 0 0 0 0 0 0 127 0" result="hardAlpha"/>
<feOffset dy="3.5"/>
<feGaussianBlur stdDeviation="10.5"/>
<feComposite in2="hardAlpha" operator="out"/>
<feColorMatrix type="matrix" values="0 0 0 0 0 0 0 0 0 0 0 0 0 0 0 0 0 0 0.04 0"/>
<feBlend mode="normal" in2="BackgroundImageFix" result="effect1_dropShadow_2_5414"/>
<feBlend mode="normal" in="SourceGraphic" in2="effect1_dropShadow_2_5414" result="shape"/>
</filter>
<filter id="filter1_d_2_5414" x="58.1559" y="33.6289" width="81.0663" height="68.9395" filterUnits="userSpaceOnUse" color-interpolation-filters="sRGB">
<feFlood flood-opacity="0" result="BackgroundImageFix"/>
<feColorMatrix in="SourceAlpha" type="matrix" values="0 0 0 0 0 0 0 0 0 0 0 0 0 0 0 0 0 0 127 0" result="hardAlpha"/>
<feOffset dy="3.5"/>
<feGaussianBlur stdDeviation="10.5"/>
<feComposite in2="hardAlpha" operator="out"/>
<feColorMatrix type="matrix" values="0 0 0 0 0 0 0 0 0 0 0 0 0 0 0 0 0 0 0.04 0"/>
<feBlend mode="normal" in2="BackgroundImageFix" result="effect1_dropShadow_2_5414"/>
<feBlend mode="normal" in="SourceGraphic" in2="effect1_dropShadow_2_5414" result="shape"/>
</filter>
<filter id="filter2_d_2_5414" x="115.928" y="34.1787" width="79.9658" height="67.8398" filterUnits="userSpaceOnUse" color-interpolation-filters="sRGB">
<feFlood flood-opacity="0" result="BackgroundImageFix"/>
<feColorMatrix in="SourceAlpha" type="matrix" values="0 0 0 0 0 0 0 0 0 0 0 0 0 0 0 0 0 0 127 0" result="hardAlpha"/>
<feOffset dy="3.5"/>
<feGaussianBlur stdDeviation="10.5"/>
<feComposite in2="hardAlpha" operator="out"/>
<feColorMatrix type="matrix" values="0 0 0 0 0 0 0 0 0 0 0 0 0 0 0 0 0 0 0.04 0"/>
<feBlend mode="normal" in2="BackgroundImageFix" result="effect1_dropShadow_2_5414"/>
<feBlend mode="normal" in="SourceGraphic" in2="effect1_dropShadow_2_5414" result="shape"/>
</filter>
<filter id="filter3_d_2_5414" x="1.20435" y="68.8154" width="81.0663" height="68.9395" filterUnits="userSpaceOnUse" color-interpolation-filters="sRGB">
<feFlood flood-opacity="0" result="BackgroundImageFix"/>
<feColorMatrix in="SourceAlpha" type="matrix" values="0 0 0 0 0 0 0 0 0 0 0 0 0 0 0 0 0 0 127 0" result="hardAlpha"/>
<feOffset dy="3.5"/>
<feGaussianBlur stdDeviation="10.5"/>
<feComposite in2="hardAlpha" operator="out"/>
<feColorMatrix type="matrix" values="0 0 0 0 0 0 0 0 0 0 0 0 0 0 0 0 0 0 0.04 0"/>
<feBlend mode="normal" in2="BackgroundImageFix" result="effect1_dropShadow_2_5414"/>
<feBlend mode="normal" in="SourceGraphic" in2="effect1_dropShadow_2_5414" result="shape"/>
</filter>
<filter id="filter4_d_2_5414" x="115.654" y="68.8154" width="81.0663" height="68.9395" filterUnits="userSpaceOnUse" color-interpolation-filters="sRGB">
<feFlood flood-opacity="0" result="BackgroundImageFix"/>
<feColorMatrix in="SourceAlpha" type="matrix" values="0 0 0 0 0 0 0 0 0 0 0 0 0 0 0 0 0 0 127 0" result="hardAlpha"/>
<feOffset dy="3.5"/>
<feGaussianBlur stdDeviation="10.5"/>
<feComposite in2="hardAlpha" operator="out"/>
<feColorMatrix type="matrix" values="0 0 0 0 0 0 0 0 0 0 0 0 0 0 0 0 0 0 0.04 0"/>
<feBlend mode="normal" in2="BackgroundImageFix" result="effect1_dropShadow_2_5414"/>
<feBlend mode="normal" in="SourceGraphic" in2="effect1_dropShadow_2_5414" result="shape"/>
</filter>
</defs>
</svg>
