<svg width="32" height="32" viewBox="0 0 32 32" fill="none" xmlns="http://www.w3.org/2000/svg">
<path d="M16 17.3998L9.00005 24.3998C8.80005 24.5998 8.56672 24.6998 8.30005 24.6998C8.03338 24.6998 7.80005 24.5998 7.60005 24.3998C7.40005 24.1998 7.30005 23.9665 7.30005 23.6998C7.30005 23.4331 7.40005 23.1998 7.60005 22.9998L14.6 15.9998L7.60005 8.9998C7.40005 8.7998 7.30005 8.56647 7.30005 8.2998C7.30005 8.03314 7.40005 7.7998 7.60005 7.5998C7.80005 7.3998 8.03338 7.2998 8.30005 7.2998C8.56672 7.2998 8.80005 7.3998 9.00005 7.5998L16 14.5998L23 7.5998C23.2 7.3998 23.4334 7.2998 23.7 7.2998C23.9667 7.2998 24.2 7.3998 24.4 7.5998C24.6 7.7998 24.7 8.03314 24.7 8.2998C24.7 8.56647 24.6 8.7998 24.4 8.9998L17.4 15.9998L24.4 22.9998C24.6 23.1998 24.7 23.4331 24.7 23.6998C24.7 23.9665 24.6 24.1998 24.4 24.3998C24.2 24.5998 23.9667 24.6998 23.7 24.6998C23.4334 24.6998 23.2 24.5998 23 24.3998L16 17.3998Z" fill="#525252"/>
</svg>
    