<svg width="35" height="30" viewBox="0 0 40 40" fill="none" xmlns="http://www.w3.org/2000/svg">
<path d="M35 9.96712C29.45 9.41712 23.8667 9.13379 18.3 9.13379C15 9.13379 11.7 9.30046 8.4 9.63379L5 9.96712" stroke="#F22D61" stroke-width="1.5" stroke-linecap="round" stroke-linejoin="round"/>
<path d="M14.1667 8.28301L14.5334 6.09967C14.8 4.51634 15 3.33301 17.8167 3.33301H22.1834C25 3.33301 25.2167 4.58301 25.4667 6.11634L25.8334 8.28301" stroke="#F22D61" stroke-width="1.5" stroke-linecap="round" stroke-linejoin="round"/>
<path d="M31.4166 15.2334L30.3333 32.0167C30.15 34.6334 30 36.6667 25.35 36.6667H14.65C9.99998 36.6667 9.84998 34.6334 9.66665 32.0167L8.58331 15.2334" stroke="#F22D61" stroke-width="1.5" stroke-linecap="round" stroke-linejoin="round"/>
<path d="M17.2167 27.5H22.7667" stroke="#F22D61" stroke-width="1.5" stroke-linecap="round" stroke-linejoin="round"/>
<path d="M15.8333 20.833H24.1666" stroke="#F22D61" stroke-width="1.5" stroke-linecap="round" stroke-linejoin="round"/>
</svg>
